<?xml version="1.0" encoding="UTF-8" standalone="no"?>
<!-- Created with Inkscape (http://www.inkscape.org/) -->

<svg
   xmlns:dc="http://purl.org/dc/elements/1.1/"
   xmlns:cc="http://creativecommons.org/ns#"
   xmlns:rdf="http://www.w3.org/1999/02/22-rdf-syntax-ns#"
   xmlns:svg="http://www.w3.org/2000/svg"
   xmlns="http://www.w3.org/2000/svg"
   xmlns:sodipodi="http://sodipodi.sourceforge.net/DTD/sodipodi-0.dtd"
   xmlns:inkscape="http://www.inkscape.org/namespaces/inkscape"
   width="16"
   height="16"
   viewBox="0 0 4.2333332 4.2333335"
   version="1.1"
   id="svg8"
   inkscape:version="0.92.3 (2405546, 2018-03-11)"
   sodipodi:docname="com.github.manexim.home.lightbulb-symbolic.svg">
  <defs
     id="defs2" />
  <sodipodi:namedview
     id="base"
     pagecolor="#ffffff"
     bordercolor="#666666"
     borderopacity="1.0"
     inkscape:pageopacity="0.0"
     inkscape:pageshadow="2"
     inkscape:zoom="31.678384"
     inkscape:cx="14.943973"
     inkscape:cy="4.6873406"
     inkscape:document-units="mm"
     inkscape:current-layer="layer1"
     showgrid="false"
     units="px"
     inkscape:window-width="1920"
     inkscape:window-height="1137"
     inkscape:window-x="0"
     inkscape:window-y="30"
     inkscape:window-maximized="1" />
  <metadata
     id="metadata5">
    <rdf:RDF>
      <cc:Work
         rdf:about="">
        <dc:format>image/svg+xml</dc:format>
        <dc:type
           rdf:resource="http://purl.org/dc/dcmitype/StillImage" />
        <dc:title></dc:title>
      </cc:Work>
    </rdf:RDF>
  </metadata>
  <g
     inkscape:label="Ebene 1"
     inkscape:groupmode="layer"
     id="layer1"
     transform="translate(0,-292.76665)">
    <path
       id="path815"
       d="m 2.1166667,292.76665 a 1.4816685,1.4816685 0 0 1 1.4816685,1.48166 c 0,0.50377 -0.2518836,0.94616 -0.6350008,1.21497 v 0.47837 a 0.21166693,0.21166693 0 0 1 -0.2116669,0.21166 H 1.4816659 A 0.21166693,0.21166693 0 0 1 1.269999,295.94165 v -0.47837 c -0.38311723,-0.26881 -0.63500083,-0.7112 -0.63500083,-1.21497 a 1.4816685,1.4816685 0 0 1 1.48166853,-1.48166 m -0.6350008,4.02167 v -0.21167 h 1.2700016 v 0.21167 a 0.21166693,0.21166693 0 0 1 -0.2116669,0.21166 H 1.6933328 a 0.21166693,0.21166693 0 0 1 -0.2116669,-0.21166 m 0.6350008,-3.59834 a 1.0583347,1.0583347 0 0 0 -1.0583347,1.05833 c 0,0.43392 0.2603503,0.80645 0.6350008,0.96944 v 0.51223 h 0.8466678 v -0.51223 c 0.3746505,-0.16299 0.6350008,-0.53552 0.6350008,-0.96944 a 1.0583347,1.0583347 0 0 0 -1.0583347,-1.05833 z"
       inkscape:connector-curvature="0"
       style="stroke-width:0.21166693;fill:#7a7a7a;fill-opacity:1" />
  </g>
</svg>
