<?xml version="1.0" encoding="UTF-8" standalone="no"?>
<!-- Created with Inkscape (http://www.inkscape.org/) -->

<svg
   xmlns:dc="http://purl.org/dc/elements/1.1/"
   xmlns:cc="http://creativecommons.org/ns#"
   xmlns:rdf="http://www.w3.org/1999/02/22-rdf-syntax-ns#"
   xmlns:svg="http://www.w3.org/2000/svg"
   xmlns="http://www.w3.org/2000/svg"
   xmlns:sodipodi="http://sodipodi.sourceforge.net/DTD/sodipodi-0.dtd"
   xmlns:inkscape="http://www.inkscape.org/namespaces/inkscape"
   width="16"
   height="16"
   viewBox="0 0 4.2333332 4.2333335"
   version="1.1"
   id="svg8"
   inkscape:version="0.92.3 (2405546, 2018-03-11)"
   sodipodi:docname="com.github.manexim.home.bridge.philips.hue-symbolic.svg">
  <defs
     id="defs2">
    <clipPath
       id="clipPath2855">
      <path
         d="m0 595.28h841.89v-595.28h-841.89v595.28z"
         id="path2857" />
    </clipPath>
  </defs>
  <sodipodi:namedview
     id="base"
     pagecolor="#ffffff"
     bordercolor="#666666"
     borderopacity="1.0"
     inkscape:pageopacity="0.0"
     inkscape:pageshadow="2"
     inkscape:zoom="52.125"
     inkscape:cx="8"
     inkscape:cy="8"
     inkscape:document-units="px"
     inkscape:current-layer="g18"
     showgrid="true"
     fit-margin-top="0"
     fit-margin-left="0"
     fit-margin-right="0"
     fit-margin-bottom="0"
     units="px"
     inkscape:window-width="1920"
     inkscape:window-height="1017"
     inkscape:window-x="0"
     inkscape:window-y="30"
     inkscape:window-maximized="1"
     showguides="false" />
  <metadata
     id="metadata5">
    <rdf:RDF>
      <cc:Work
         rdf:about="">
        <dc:format>image/svg+xml</dc:format>
        <dc:type
           rdf:resource="http://purl.org/dc/dcmitype/StillImage" />
        <dc:title />
      </cc:Work>
    </rdf:RDF>
  </metadata>
  <g
     inkscape:label="Ebene 1"
     inkscape:groupmode="layer"
     id="layer1"
     transform="translate(0,-292.76665)">
    <g
       transform="matrix(0.01978193,0,0,0.01978193,-0.07418208,292.54114)"
       id="g18"
       style="fill:#440099;fill-opacity:1">
      <path
         style="opacity:1;fill:#7a7a7a;fill-opacity:1;stroke:none;stroke-width:2.63466525;stroke-miterlimit:4;stroke-dasharray:none;stroke-opacity:1"
         d="M 2 0 C 0.89200001 0 0 0.89200001 0 2 L 0 14 C 0 15.108 0.89200001 16 2 16 L 14 16 C 15.108 16 16 15.108 16 14 L 16 2 C 16 0.89200001 15.108 0 14 0 L 2 0 z M 8 2 A 6.0000001 6.0000001 0 0 1 14 8 A 6.0000001 6.0000001 0 0 1 8 14 A 6.0000001 6.0000001 0 0 1 2 8 A 6.0000001 6.0000001 0 0 1 8 2 z "
         transform="matrix(13.375001,0,0,13.375001,3.749992,11.399798)"
         id="rect57" />
      <path
         style="opacity:1;fill:#7a7a7a;fill-opacity:1;stroke:none;stroke-width:0.99535859;stroke-miterlimit:4;stroke-dasharray:none;stroke-opacity:1"
         d="M 8 3 A 5.0000002 5.0000002 0 0 0 3 8 A 5.0000002 5.0000002 0 0 0 8 13 A 5.0000002 5.0000002 0 0 0 13 8 A 5.0000002 5.0000002 0 0 0 8 3 z M 4.5234375 7.265625 C 4.9648431 7.265625 5.2363281 7.4081475 5.2363281 7.8027344 C 5.2363281 8.1621056 4.9822181 8.3691406 4.5820312 8.3691406 L 4.4296875 8.3691406 L 4.4296875 8.703125 L 4 8.703125 L 4 7.296875 C 4.1472673 7.279266 4.3525515 7.265625 4.5234375 7.265625 z M 10.050781 7.265625 C 10.492389 7.265625 10.763672 7.4081475 10.763672 7.8027344 C 10.763672 8.1621056 10.511313 8.3691406 10.111328 8.3691406 L 9.9570312 8.3691406 L 9.9570312 8.703125 L 9.5273438 8.703125 L 9.5273438 7.296875 C 9.6744166 7.279266 9.8800972 7.265625 10.050781 7.265625 z M 11.476562 7.265625 C 11.65885 7.265625 11.759034 7.2849825 11.871094 7.3085938 L 11.90625 7.6152344 C 11.806198 7.5738153 11.658899 7.5429688 11.523438 7.5429688 C 11.399976 7.5429687 11.322266 7.5796137 11.322266 7.65625 C 11.322266 7.8801565 12 7.7906952 12 8.2617188 C 12 8.6152873 11.706624 8.734375 11.347656 8.734375 C 11.206191 8.734375 11.027903 8.7093318 10.898438 8.6621094 L 10.851562 8.3378906 C 10.981028 8.4027213 11.198775 8.4511719 11.339844 8.4511719 C 11.498722 8.4511719 11.564453 8.4026954 11.564453 8.3144531 C 11.564453 8.084744 10.892578 8.1862414 10.892578 7.6914062 C 10.892578 7.4042698 11.129198 7.265625 11.476562 7.265625 z M 5.40625 7.296875 L 5.8359375 7.296875 L 5.8359375 7.8554688 L 6.2832031 7.8554688 L 6.2832031 7.296875 L 6.7148438 7.296875 L 6.7148438 8.703125 L 6.2832031 8.703125 L 6.2832031 8.1503906 L 5.8359375 8.1503906 L 5.8359375 8.703125 L 5.40625 8.703125 L 5.40625 7.296875 z M 7.03125 7.296875 L 7.4609375 7.296875 L 7.4609375 8.703125 L 7.03125 8.703125 L 7.03125 7.296875 z M 7.7792969 7.296875 L 8.2089844 7.296875 L 8.2089844 8.421875 L 8.6210938 8.421875 L 8.5566406 8.703125 L 7.7792969 8.703125 L 7.7792969 7.296875 z M 8.7734375 7.296875 L 9.203125 7.296875 L 9.203125 8.703125 L 8.7734375 8.703125 L 8.7734375 7.296875 z M 4.5 7.53125 C 4.4779888 7.53125 4.4547043 7.531805 4.4296875 7.5332031 L 4.4296875 8.1152344 L 4.5 8.1152344 C 4.7237009 8.1152344 4.8125 7.9910805 4.8125 7.8085938 C 4.8125 7.63171 4.7118953 7.53125 4.5 7.53125 z M 10.027344 7.53125 C 10.005333 7.53125 9.9820481 7.531805 9.9570312 7.5332031 L 9.9570312 8.1152344 L 10.027344 8.1152344 C 10.251247 8.1152344 10.339844 7.9910805 10.339844 7.8085938 C 10.339844 7.63171 10.239239 7.53125 10.027344 7.53125 z "
         transform="matrix(13.375001,0,0,13.375001,3.749992,11.399798)"
         id="path864" />
    </g>
  </g>
</svg>
