<?xml version="1.0" encoding="UTF-8" standalone="no"?>
<!-- Created with Inkscape (http://www.inkscape.org/) -->

<svg
   xmlns:dc="http://purl.org/dc/elements/1.1/"
   xmlns:cc="http://creativecommons.org/ns#"
   xmlns:rdf="http://www.w3.org/1999/02/22-rdf-syntax-ns#"
   xmlns:svg="http://www.w3.org/2000/svg"
   xmlns="http://www.w3.org/2000/svg"
   xmlns:sodipodi="http://sodipodi.sourceforge.net/DTD/sodipodi-0.dtd"
   xmlns:inkscape="http://www.inkscape.org/namespaces/inkscape"
   width="16"
   height="16"
   viewBox="0 0 4.2333332 4.2333335"
   version="1.1"
   id="svg8"
   inkscape:version="0.92.3 (2405546, 2018-03-11)"
   sodipodi:docname="com.manexim.home.icon.lamp2-symbolic.svg">
  <defs
     id="defs2" />
  <sodipodi:namedview
     id="base"
     pagecolor="#ffffff"
     bordercolor="#666666"
     borderopacity="1.0"
     inkscape:pageopacity="0.0"
     inkscape:pageshadow="2"
     inkscape:zoom="61.500001"
     inkscape:cx="7.9999999"
     inkscape:cy="8.0000001"
     inkscape:document-units="mm"
     inkscape:current-layer="g18"
     showgrid="false"
     fit-margin-top="0"
     fit-margin-left="0"
     fit-margin-right="0"
     fit-margin-bottom="0"
     units="px"
     inkscape:window-width="1920"
     inkscape:window-height="1167"
     inkscape:window-x="1920"
     inkscape:window-y="0"
     inkscape:window-maximized="1" />
  <metadata
     id="metadata5">
    <rdf:RDF>
      <cc:Work
         rdf:about="">
        <dc:format>image/svg+xml</dc:format>
        <dc:type
           rdf:resource="http://purl.org/dc/dcmitype/StillImage" />
        <dc:title></dc:title>
      </cc:Work>
    </rdf:RDF>
  </metadata>
  <g
     inkscape:label="Ebene 1"
     inkscape:groupmode="layer"
     id="layer1"
     transform="translate(0,-292.76665)">
    <g
       transform="matrix(0.01978193,0,0,0.01978193,-0.07418208,292.54114)"
       id="g18"
       style="fill:#440099;fill-opacity:1">
      <path
         inkscape:connector-curvature="0"
         d="m 98.465704,11.399798 -17.869,26.750001 12.198,8.025001 -34.02601,50.825007 c -0.428,0 -0.963,0 -1.498,0 a 21.400001,21.400001 0 0 0 -21.4,21.400003 c 0,10.05799 7.062,18.72499 16.906,20.86499 l 43.22801,64.73501 h -38.73401 v 21.4 H 164.2707 v -21.4 h -42.8 L 73.641704,132.0958 c 3.21,-3.852 5.029,-8.667 5.029,-13.69599 0,-3.21 -0.749,-6.42 -2.14,-9.309 L 110.7707,58.158801 c -2.354,17.976001 8.025,37.664006 26.215,49.541009 l 47.508,-70.941011 c -18.083,-12.091001 -40.339,-14.231001 -56.068,-5.35 L 98.465704,11.399798 m 80.035996,53.500004 -17.762,26.750005 c 7.276,4.815 17.334,2.889 22.256,-4.494008 4.922,-7.382997 2.675,-17.333998 -4.494,-22.255997 z"
         id="path2"
         style="fill:#7a7a7a;fill-opacity:1;stroke-width:10.70000076" />
    </g>
  </g>
</svg>
