<?xml version="1.0" encoding="UTF-8" standalone="no"?>
<!-- Created with Inkscape (http://www.inkscape.org/) -->

<svg
   xmlns:dc="http://purl.org/dc/elements/1.1/"
   xmlns:cc="http://creativecommons.org/ns#"
   xmlns:rdf="http://www.w3.org/1999/02/22-rdf-syntax-ns#"
   xmlns:svg="http://www.w3.org/2000/svg"
   xmlns="http://www.w3.org/2000/svg"
   xmlns:sodipodi="http://sodipodi.sourceforge.net/DTD/sodipodi-0.dtd"
   xmlns:inkscape="http://www.inkscape.org/namespaces/inkscape"
   width="16"
   height="16"
   viewBox="0 0 4.2333332 4.2333335"
   version="1.1"
   id="svg8"
   inkscape:version="0.92.3 (2405546, 2018-03-11)"
   sodipodi:docname="com.manexim.home.icon.lightbulb.philips.hue-symbolic.svg">
  <defs
     id="defs2" />
  <sodipodi:namedview
     id="base"
     pagecolor="#ffffff"
     bordercolor="#666666"
     borderopacity="1.0"
     inkscape:pageopacity="0.0"
     inkscape:pageshadow="2"
     inkscape:zoom="52.125"
     inkscape:cx="4.6426859"
     inkscape:cy="8"
     inkscape:document-units="px"
     inkscape:current-layer="layer1"
     showgrid="false"
     units="px"
     inkscape:window-width="1920"
     inkscape:window-height="1137"
     inkscape:window-x="0"
     inkscape:window-y="30"
     inkscape:window-maximized="1" />
  <metadata
     id="metadata5">
    <rdf:RDF>
      <cc:Work
         rdf:about="">
        <dc:format>image/svg+xml</dc:format>
        <dc:type
           rdf:resource="http://purl.org/dc/dcmitype/StillImage" />
        <dc:title></dc:title>
      </cc:Work>
    </rdf:RDF>
  </metadata>
  <g
     inkscape:label="Ebene 1"
     inkscape:groupmode="layer"
     id="layer1"
     transform="translate(0,-292.76665)">
    <path
       style="fill:#7a7a7a;stroke-width:0.00432284;fill-opacity:1"
       d="m 2.0311319,296.99431 c -0.1276,-0.0198 -0.25245,-0.10362 -0.3307,-0.22193 -0.0338,-0.051 -0.0524,-0.0931 -0.0675,-0.15191 -0.009,-0.0356 -0.0112,-0.057 -0.0146,-0.15378 -0.002,-0.0618 -0.004,-0.16994 -0.004,-0.24028 l -1.3e-4,-0.12788 -0.0241,-0.0166 c -0.051,-0.0351 -0.088,-0.0913 -0.10563,-0.16005 -0.005,-0.0205 -0.0104,-0.0611 -0.0128,-0.10133 -0.0111,-0.18353 -0.0665,-0.67248 -0.0972,-0.85852 -0.0773,-0.46805 -0.18657,-0.86285 -0.37307,-1.34841 -0.0458001,-0.11934 -0.0745001,-0.20391 -0.0836001,-0.2464 -0.008,-0.039 -0.007,-0.11396 0.004,-0.16211 0.0399,-0.18671 0.1557501,-0.30979 0.3423601,-0.36362 0.0711,-0.0205 0.28601,-0.0487 0.5297,-0.0696 0.0833,-0.007 0.51026,-0.007 0.6333,3.8e-4 0.16799,0.01 0.44222,0.0434 0.53407,0.0652 0.15906,0.0378 0.29304,0.16675 0.34302,0.33018 0.0115,0.0375 0.0193,0.12007 0.0156,0.16498 -0.004,0.0517 -0.0192,0.10316 -0.0653,0.22381 -0.0229,0.06 -0.0542,0.14212 -0.0696,0.18254 -0.15803,0.41544 -0.28583,0.91893 -0.34672,1.36602 -0.0238,0.17515 -0.0641,0.54675 -0.0737,0.68085 -0.007,0.10154 -0.008,0.11176 -0.0156,0.13974 -0.0164,0.0639 -0.0521,0.11812 -0.10152,0.15407 l -0.03,0.0218 v 0.18713 c 0,0.2775 -0.007,0.33689 -0.0513,0.42766 -0.0373,0.0765 -0.11148,0.16209 -0.17862,0.206 -0.031,0.0203 -0.10584,0.053 -0.14374,0.0629 -0.0599,0.0156 -0.14659,0.0193 -0.21222,0.009 z m 0.1702,-0.14295 c 0.0585,-0.0139 0.13499,-0.0579 0.17331,-0.0998 0.0121,-0.0132 0.022,-0.0259 0.022,-0.0281 0,-0.007 -0.54724,-0.003 -0.55393,0.004 -0.0104,0.0104 0.0587,0.0675 0.11672,0.0964 0.0744,0.0371 0.16104,0.047 0.24195,0.0279 z m 0.27307,-0.35008 v -0.0757 h -0.3588 -0.35879 v 0.0728 c 0,0.04 0.001,0.0741 0.003,0.0756 0.002,0.002 0.16304,0.003 0.35879,0.003 h 0.35592 z m 0,-0.2875 v -0.0778 l -0.35772,10e-4 -0.35771,0.001 -10e-4,0.0712 c -6.5e-4,0.0391 -2.3e-4,0.0737 9.5e-4,0.0767 0.002,0.004 0.0718,0.006 0.35891,0.006 h 0.35677 z m 0.0745,-0.23335 c 0.0407,-0.0292 0.0681,-0.0734 0.0681,-0.11015 v -0.0196 h -0.50145 -0.50145 v 0.0122 c 0,0.0378 0.0272,0.0835 0.0692,0.116 l 0.0238,0.0184 0.40889,1.8e-4 0.40888,1.8e-4 z m 0.0787,-0.2778 c 0.004,-0.026 0.0149,-0.117 0.0283,-0.24316 0.0571,-0.53977 0.11946,-0.86994 0.25135,-1.33055 0.0216,-0.0756 0.038,-0.13881 0.0363,-0.14049 -0.009,-0.009 -1.64472,-0.007 -1.65296,0.001 -0.003,0.003 0.003,0.0274 0.0143,0.067 0.0572,0.19556 0.0734,0.25326 0.0949,0.33934 0.0832,0.33229 0.13344,0.6372 0.18193,1.10449 0.009,0.082 0.0173,0.16178 0.0195,0.17723 0.002,0.0155 0.004,0.0305 0.004,0.0335 7e-5,0.004 0.10499,0.005 0.50999,0.005 h 0.50989 z m 0.40586,-1.95612 c 0.0186,-0.0517 0.0561,-0.14985 0.0832,-0.21812 0.0271,-0.0683 0.0512,-0.13247 0.0536,-0.14266 0.007,-0.0317 0.0103,-0.1238 0.005,-0.15901 -0.009,-0.0573 -0.0418,-0.11397 -0.0987,-0.17011 -0.0416,-0.041 -0.0661,-0.0568 -0.11134,-0.0715 -0.11002,-0.0359 -0.37528,-0.0669 -0.63114,-0.0739 -0.28491,-0.008 -0.45386,-0.006 -0.60096,0.006 -0.2659,0.0224 -0.41618,0.0458 -0.48839,0.0761 -0.0706,0.0297 -0.15134,0.1194 -0.17816,0.19807 -0.008,0.0246 -0.01,0.0374 -0.01,0.0977 -8e-5,0.0488 0.002,0.0769 0.007,0.0949 0.004,0.014 0.0262,0.0752 0.0502,0.13589 0.024,0.0607 0.0589,0.15223 0.0778,0.2034 0.0188,0.0512 0.0364,0.0984 0.039,0.10493 l 0.005,0.0119 0.88242,-3e-5 0.88241,-2e-5 0.0339,-0.094 z"
       id="path76"
       inkscape:connector-curvature="0" />
  </g>
</svg>
