<?xml version="1.0" encoding="UTF-8" standalone="no"?>
<!-- Created with Inkscape (http://www.inkscape.org/) -->

<svg
   xmlns:dc="http://purl.org/dc/elements/1.1/"
   xmlns:cc="http://creativecommons.org/ns#"
   xmlns:rdf="http://www.w3.org/1999/02/22-rdf-syntax-ns#"
   xmlns:svg="http://www.w3.org/2000/svg"
   xmlns="http://www.w3.org/2000/svg"
   xmlns:sodipodi="http://sodipodi.sourceforge.net/DTD/sodipodi-0.dtd"
   xmlns:inkscape="http://www.inkscape.org/namespaces/inkscape"
   width="16"
   height="16"
   viewBox="0 0 4.2333332 4.2333335"
   version="1.1"
   id="svg8"
   inkscape:version="0.92.3 (2405546, 2018-03-11)"
   sodipodi:docname="com.github.manexim.home.thing-symbolic.svg">
  <defs
     id="defs2" />
  <sodipodi:namedview
     id="base"
     pagecolor="#ffffff"
     bordercolor="#666666"
     borderopacity="1.0"
     inkscape:pageopacity="0.0"
     inkscape:pageshadow="2"
     inkscape:zoom="0.5"
     inkscape:cx="-276.67729"
     inkscape:cy="-237.65193"
     inkscape:document-units="px"
     inkscape:current-layer="g18"
     showgrid="true"
     fit-margin-top="0"
     fit-margin-left="0"
     fit-margin-right="0"
     fit-margin-bottom="0"
     units="px"
     inkscape:window-width="1920"
     inkscape:window-height="1017"
     inkscape:window-x="0"
     inkscape:window-y="30"
     inkscape:window-maximized="1"
     showguides="false" />
  <metadata
     id="metadata5">
    <rdf:RDF>
      <cc:Work
         rdf:about="">
        <dc:format>image/svg+xml</dc:format>
        <dc:type
           rdf:resource="http://purl.org/dc/dcmitype/StillImage" />
        <dc:title />
      </cc:Work>
    </rdf:RDF>
  </metadata>
  <g
     inkscape:label="Ebene 1"
     inkscape:groupmode="layer"
     id="layer1"
     transform="translate(0,-292.76665)">
    <g
       transform="matrix(0.01978193,0,0,0.01978193,-0.07418208,292.54114)"
       id="g18"
       style="fill:#440099;fill-opacity:1">
      <path
         style="opacity:1;fill:#7a7a7a;fill-opacity:1;stroke:none;stroke-width:2.38874531;stroke-miterlimit:4;stroke-dasharray:none;stroke-dashoffset:0;stroke-opacity:1"
         d="M 3.5 2.5 C 2.946 2.5 2.5 2.946 2.5 3.5 L 2.5 12.5 C 2.5 13.054 2.946 13.5 3.5 13.5 L 12.5 13.5 C 13.054 13.5 13.5 13.054 13.5 12.5 L 13.5 3.5 C 13.5 2.946 13.054 2.5 12.5 2.5 L 3.5 2.5 z M 5.1367188 4.5 L 10.863281 4.5 C 11.215827 4.5 11.5 4.7841733 11.5 5.1367188 L 11.5 10.863281 C 11.5 11.215827 11.215827 11.5 10.863281 11.5 L 5.1367188 11.5 C 4.7841733 11.5 4.5 11.215827 4.5 10.863281 L 4.5 5.1367188 C 4.5 4.7841733 4.7841733 4.5 5.1367188 4.5 z "
         transform="matrix(13.375001,0,0,13.375001,3.749992,11.399798)"
         id="rect837" />
      <rect
         ry="6.0795455"
         rx="6.0795455"
         y="84.962303"
         x="77.312492"
         height="66.875008"
         width="66.875008"
         id="rect844"
         style="opacity:1;fill:#7a7a7a;fill-opacity:1;stroke:none;stroke-width:14.52248573;stroke-miterlimit:4;stroke-dasharray:none;stroke-dashoffset:0;stroke-opacity:1" />
      <path
         style="opacity:1;fill:#7a7a7a;fill-opacity:1;stroke:none;stroke-width:18.10500717;stroke-miterlimit:4;stroke-dasharray:none;stroke-dashoffset:0;stroke-opacity:1"
         d="m 57.249996,11.399798 c -3.704875,0 -6.6875,5.96525 -6.6875,13.375001 V 44.8373 H 63.937497 V 24.774799 c 0,-7.409751 -2.982626,-13.375001 -6.687501,-13.375001 z"
         id="rect846"
         inkscape:connector-curvature="0" />
      <path
         inkscape:connector-curvature="0"
         id="path918"
         d="m 83.999998,11.399798 c -3.704875,0 -6.6875,5.96525 -6.6875,13.375001 V 44.8373 H 90.687499 V 24.774799 c 0,-7.409751 -2.982626,-13.375001 -6.687501,-13.375001 z"
         style="opacity:1;fill:#7a7a7a;fill-opacity:1;stroke:none;stroke-width:18.10500717;stroke-miterlimit:4;stroke-dasharray:none;stroke-dashoffset:0;stroke-opacity:1" />
      <path
         style="opacity:1;fill:#7a7a7a;fill-opacity:1;stroke:none;stroke-width:18.10500717;stroke-miterlimit:4;stroke-dasharray:none;stroke-dashoffset:0;stroke-opacity:1"
         d="m 110.75,11.399798 c -3.70488,0 -6.6875,5.96525 -6.6875,13.375001 V 44.8373 h 13.375 V 24.774799 c 0,-7.409751 -2.98263,-13.375001 -6.6875,-13.375001 z"
         id="path920"
         inkscape:connector-curvature="0" />
      <path
         inkscape:connector-curvature="0"
         id="path922"
         d="m 137.5,11.399798 c -3.70488,0 -6.6875,5.96525 -6.6875,13.375001 V 44.8373 h 13.375 V 24.774799 c 0,-7.409751 -2.98263,-13.375001 -6.6875,-13.375001 z"
         style="opacity:1;fill:#7a7a7a;fill-opacity:1;stroke:none;stroke-width:18.10500717;stroke-miterlimit:4;stroke-dasharray:none;stroke-dashoffset:0;stroke-opacity:1" />
      <path
         style="opacity:1;fill:#7a7a7a;fill-opacity:1;stroke:none;stroke-width:18.10500717;stroke-miterlimit:4;stroke-dasharray:none;stroke-dashoffset:0;stroke-opacity:1"
         d="m 164.25,11.399798 c -3.70488,0 -6.6875,5.96525 -6.6875,13.375001 V 44.8373 h 13.375 V 24.774799 c 0,-7.409751 -2.98263,-13.375001 -6.6875,-13.375001 z"
         id="path924"
         inkscape:connector-curvature="0" />
      <path
         inkscape:connector-curvature="0"
         id="path926"
         d="m 57.249996,225.39981 c -3.704875,0 -6.6875,-5.96525 -6.6875,-13.375 v -20.0625 h 13.375001 v 20.0625 c 0,7.40975 -2.982626,13.375 -6.687501,13.375 z"
         style="opacity:1;fill:#7a7a7a;fill-opacity:1;stroke:none;stroke-width:18.10500717;stroke-miterlimit:4;stroke-dasharray:none;stroke-dashoffset:0;stroke-opacity:1" />
      <path
         style="opacity:1;fill:#7a7a7a;fill-opacity:1;stroke:none;stroke-width:18.10500717;stroke-miterlimit:4;stroke-dasharray:none;stroke-dashoffset:0;stroke-opacity:1"
         d="m 83.999998,225.39981 c -3.704875,0 -6.6875,-5.96525 -6.6875,-13.375 v -20.0625 h 13.375001 v 20.0625 c 0,7.40975 -2.982626,13.375 -6.687501,13.375 z"
         id="path928"
         inkscape:connector-curvature="0" />
      <path
         inkscape:connector-curvature="0"
         id="path930"
         d="m 110.75,225.39981 c -3.70488,0 -6.6875,-5.96525 -6.6875,-13.375 v -20.0625 h 13.375 v 20.0625 c 0,7.40975 -2.98263,13.375 -6.6875,13.375 z"
         style="opacity:1;fill:#7a7a7a;fill-opacity:1;stroke:none;stroke-width:18.10500717;stroke-miterlimit:4;stroke-dasharray:none;stroke-dashoffset:0;stroke-opacity:1" />
      <path
         style="opacity:1;fill:#7a7a7a;fill-opacity:1;stroke:none;stroke-width:18.10500717;stroke-miterlimit:4;stroke-dasharray:none;stroke-dashoffset:0;stroke-opacity:1"
         d="m 137.5,225.39981 c -3.70488,0 -6.6875,-5.96525 -6.6875,-13.375 v -20.0625 h 13.375 v 20.0625 c 0,7.40975 -2.98263,13.375 -6.6875,13.375 z"
         id="path932"
         inkscape:connector-curvature="0" />
      <path
         inkscape:connector-curvature="0"
         id="path934"
         d="m 164.25,225.39981 c -3.70488,0 -6.6875,-5.96525 -6.6875,-13.375 v -20.0625 h 13.375 v 20.0625 c 0,7.40975 -2.98263,13.375 -6.6875,13.375 z"
         style="opacity:1;fill:#7a7a7a;fill-opacity:1;stroke:none;stroke-width:18.10500717;stroke-miterlimit:4;stroke-dasharray:none;stroke-dashoffset:0;stroke-opacity:1" />
      <path
         style="opacity:1;fill:#7a7a7a;fill-opacity:1;stroke:none;stroke-width:18.10500717;stroke-miterlimit:4;stroke-dasharray:none;stroke-dashoffset:0;stroke-opacity:1"
         d="m 3.75,64.899806 c 0,-3.704875 5.96525,-6.6875 13.375,-6.6875 H 37.1875 V 71.587307 H 17.125 c -7.40975,0 -13.375,-2.982626 -13.375,-6.687501 z"
         id="path936"
         inkscape:connector-curvature="0" />
      <path
         inkscape:connector-curvature="0"
         id="path938"
         d="m 3.75,91.649808 c 0,-3.704875 5.96525,-6.6875 13.375,-6.6875 H 37.1875 V 98.337309 H 17.125 c -7.40975,0 -13.375,-2.982626 -13.375,-6.687501 z"
         style="opacity:1;fill:#7a7a7a;fill-opacity:1;stroke:none;stroke-width:18.10500717;stroke-miterlimit:4;stroke-dasharray:none;stroke-dashoffset:0;stroke-opacity:1" />
      <path
         style="opacity:1;fill:#7a7a7a;fill-opacity:1;stroke:none;stroke-width:18.10500717;stroke-miterlimit:4;stroke-dasharray:none;stroke-dashoffset:0;stroke-opacity:1"
         d="m 3.75,118.39981 c 0,-3.70488 5.96525,-6.6875 13.375,-6.6875 h 20.0625 v 13.375 H 17.125 c -7.40975,0 -13.375,-2.98263 -13.375,-6.6875 z"
         id="path940"
         inkscape:connector-curvature="0" />
      <path
         inkscape:connector-curvature="0"
         id="path942"
         d="m 3.75,145.14981 c 0,-3.70488 5.96525,-6.6875 13.375,-6.6875 h 20.0625 v 13.375 H 17.125 c -7.40975,0 -13.375,-2.98263 -13.375,-6.6875 z"
         style="opacity:1;fill:#7a7a7a;fill-opacity:1;stroke:none;stroke-width:18.10500717;stroke-miterlimit:4;stroke-dasharray:none;stroke-dashoffset:0;stroke-opacity:1" />
      <path
         style="opacity:1;fill:#7a7a7a;fill-opacity:1;stroke:none;stroke-width:18.10500717;stroke-miterlimit:4;stroke-dasharray:none;stroke-dashoffset:0;stroke-opacity:1"
         d="m 3.75,171.89981 c 0,-3.70488 5.96525,-6.6875 13.375,-6.6875 h 20.0625 v 13.375 H 17.125 c -7.40975,0 -13.375,-2.98263 -13.375,-6.6875 z"
         id="path944"
         inkscape:connector-curvature="0" />
      <path
         inkscape:connector-curvature="0"
         id="path958"
         d="m 217.75001,64.899806 c 0,-3.704875 -5.96525,-6.6875 -13.375,-6.6875 h -20.0625 v 13.375001 h 20.0625 c 7.40975,0 13.375,-2.982626 13.375,-6.687501 z"
         style="opacity:1;fill:#7a7a7a;fill-opacity:1;stroke:none;stroke-width:18.10500717;stroke-miterlimit:4;stroke-dasharray:none;stroke-dashoffset:0;stroke-opacity:1" />
      <path
         style="opacity:1;fill:#7a7a7a;fill-opacity:1;stroke:none;stroke-width:18.10500717;stroke-miterlimit:4;stroke-dasharray:none;stroke-dashoffset:0;stroke-opacity:1"
         d="m 217.75001,91.649808 c 0,-3.704875 -5.96525,-6.6875 -13.375,-6.6875 h -20.0625 v 13.375001 h 20.0625 c 7.40975,0 13.375,-2.982626 13.375,-6.687501 z"
         id="path960"
         inkscape:connector-curvature="0" />
      <path
         inkscape:connector-curvature="0"
         id="path962"
         d="m 217.75001,118.39981 c 0,-3.70488 -5.96525,-6.6875 -13.375,-6.6875 h -20.0625 v 13.375 h 20.0625 c 7.40975,0 13.375,-2.98263 13.375,-6.6875 z"
         style="opacity:1;fill:#7a7a7a;fill-opacity:1;stroke:none;stroke-width:18.10500717;stroke-miterlimit:4;stroke-dasharray:none;stroke-dashoffset:0;stroke-opacity:1" />
      <path
         style="opacity:1;fill:#7a7a7a;fill-opacity:1;stroke:none;stroke-width:18.10500717;stroke-miterlimit:4;stroke-dasharray:none;stroke-dashoffset:0;stroke-opacity:1"
         d="m 217.75001,145.14981 c 0,-3.70488 -5.96525,-6.6875 -13.375,-6.6875 h -20.0625 v 13.375 h 20.0625 c 7.40975,0 13.375,-2.98263 13.375,-6.6875 z"
         id="path964"
         inkscape:connector-curvature="0" />
      <path
         inkscape:connector-curvature="0"
         id="path966"
         d="m 217.75001,171.89981 c 0,-3.70488 -5.96525,-6.6875 -13.375,-6.6875 h -20.0625 v 13.375 h 20.0625 c 7.40975,0 13.375,-2.98263 13.375,-6.6875 z"
         style="opacity:1;fill:#7a7a7a;fill-opacity:1;stroke:none;stroke-width:18.10500717;stroke-miterlimit:4;stroke-dasharray:none;stroke-dashoffset:0;stroke-opacity:1" />
    </g>
  </g>
</svg>
