<?xml version="1.0" encoding="UTF-8" standalone="no"?>
<!-- Created with Inkscape (http://www.inkscape.org/) -->

<svg
   xmlns:dc="http://purl.org/dc/elements/1.1/"
   xmlns:cc="http://creativecommons.org/ns#"
   xmlns:rdf="http://www.w3.org/1999/02/22-rdf-syntax-ns#"
   xmlns:svg="http://www.w3.org/2000/svg"
   xmlns="http://www.w3.org/2000/svg"
   xmlns:sodipodi="http://sodipodi.sourceforge.net/DTD/sodipodi-0.dtd"
   xmlns:inkscape="http://www.inkscape.org/namespaces/inkscape"
   width="16"
   height="16"
   viewBox="0 0 4.2333332 4.2333335"
   version="1.1"
   id="svg8"
   inkscape:version="0.92.3 (2405546, 2018-03-11)"
   sodipodi:docname="com.manexim.home.icon.spot-symbolic.svg">
  <defs
     id="defs2" />
  <sodipodi:namedview
     id="base"
     pagecolor="#ffffff"
     bordercolor="#666666"
     borderopacity="1.0"
     inkscape:pageopacity="0.0"
     inkscape:pageshadow="2"
     inkscape:zoom="61.499998"
     inkscape:cx="5.1544716"
     inkscape:cy="7.9999998"
     inkscape:document-units="px"
     inkscape:current-layer="g18"
     showgrid="false"
     fit-margin-top="0"
     fit-margin-left="0"
     fit-margin-right="0"
     fit-margin-bottom="0"
     units="px"
     inkscape:window-width="1920"
     inkscape:window-height="1167"
     inkscape:window-x="1920"
     inkscape:window-y="0"
     inkscape:window-maximized="1"
     showguides="false" />
  <metadata
     id="metadata5">
    <rdf:RDF>
      <cc:Work
         rdf:about="">
        <dc:format>image/svg+xml</dc:format>
        <dc:type
           rdf:resource="http://purl.org/dc/dcmitype/StillImage" />
        <dc:title></dc:title>
      </cc:Work>
    </rdf:RDF>
  </metadata>
  <g
     inkscape:label="Ebene 1"
     inkscape:groupmode="layer"
     id="layer1"
     transform="translate(0,-292.76665)">
    <g
       transform="matrix(0.01978193,0,0,0.01978193,-0.07418208,292.54114)"
       id="g18"
       style="fill:#440099;fill-opacity:1">
      <path
         style="opacity:1;fill:#7a7a7a;fill-opacity:1;stroke:none;stroke-width:23.19148827;stroke-miterlimit:4;stroke-dasharray:none;stroke-dashoffset:0;stroke-opacity:1"
         d="m 104.06249,105.0248 a 6.6874998,6.6874998 0 0 0 -0.47021,0.0261 6.6874998,6.6874998 0 0 0 -0.6792,0.0784 6.6874998,6.6874998 0 0 0 -0.54858,0.1045 6.6875005,6.6875005 0 0 0 -0.0784,0.0261 6.6874998,6.6874998 0 0 0 -0.47022,0.15674 6.6875005,6.6875005 0 0 0 -0.28735,0.10449 6.6874998,6.6874998 0 0 0 -0.0784,0.0261 6.6875005,6.6875005 0 0 0 -0.41797,0.209 6.6874998,6.6874998 0 0 0 -0.57471,0.33959 6.6874998,6.6874998 0 0 0 -0.39184,0.26122 6.6875005,6.6875005 0 0 0 -0.235111,0.18287 6.6874998,6.6874998 0 0 0 -0.261231,0.2351 6.6875005,6.6875005 0 0 0 -0.235107,0.20899 6.6874998,6.6874998 0 0 0 -0.208985,0.2351 6.6875005,6.6875005 0 0 0 -0.235107,0.26124 6.6874998,6.6874998 0 0 0 -0.182862,0.23511 6.6875005,6.6875005 0 0 0 -0.156738,0.20898 6.6874998,6.6874998 0 0 0 -0.104492,0.18287 6.6875005,6.6875005 0 0 0 -0.3396,0.57471 6.6875005,6.6875005 0 0 0 -0.235107,0.49633 6.6874998,6.6874998 0 0 0 -0.104492,0.28735 6.6875005,6.6875005 0 0 0 -0.156739,0.44409 6.6874998,6.6874998 0 0 0 -0.02612,0.1045 6.6875005,6.6875005 0 0 0 -0.07837,0.36572 6.6874998,6.6874998 0 0 0 -0.02612,0.18285 6.6875005,6.6875005 0 0 0 -0.07837,0.67921 6.6874998,6.6874998 0 0 0 -0.02612,0.47021 6.6875005,6.6875005 0 0 0 0.02612,0.47022 6.6874998,6.6874998 0 0 0 0.07837,0.6792 6.6874998,6.6874998 0 0 0 0.104492,0.54858 6.6875005,6.6875005 0 0 0 0.02612,0.1045 6.6874998,6.6874998 0 0 0 0.156739,0.44409 6.6875005,6.6875005 0 0 0 0.104492,0.28735 6.6874998,6.6874998 0 0 0 0.02612,0.0784 6.6875005,6.6875005 0 0 0 0.208984,0.41797 6.6874998,6.6874998 0 0 0 0.3396,0.57471 6.6874998,6.6874998 0 0 0 0.26123,0.39185 6.6875005,6.6875005 0 0 0 0.182862,0.2351 6.6874998,6.6874998 0 0 0 0.235107,0.26125 6.6875005,6.6875005 0 0 0 0.208985,0.2351 6.6874998,6.6874998 0 0 0 0.235107,0.20899 6.6875005,6.6875005 0 0 0 0.261231,0.2351 6.6874998,6.6874998 0 0 0 0.235112,0.18286 6.6875005,6.6875005 0 0 0 0.20898,0.15673 6.6874998,6.6874998 0 0 0 0.18286,0.1045 6.6875005,6.6875005 0 0 0 0.57471,0.33959 6.6875005,6.6875005 0 0 0 0.49634,0.23512 6.6874998,6.6874998 0 0 0 0.28735,0.10449 6.6875005,6.6875005 0 0 0 0.47021,0.15674 6.6874998,6.6874998 0 0 0 0.0784,0.0261 6.6875005,6.6875005 0 0 0 0.36573,0.0784 6.6874998,6.6874998 0 0 0 0.18286,0.0261 6.6875005,6.6875005 0 0 0 0.6792,0.0784 6.6874998,6.6874998 0 0 0 0.47021,0.0261 6.6874998,6.6874998 0 0 0 0.47022,-0.0261 6.6874998,6.6874998 0 0 0 0.6792,-0.0784 6.6875005,6.6875005 0 0 0 0.54858,-0.1045 6.6874998,6.6874998 0 0 0 0.0784,-0.0261 6.6875005,6.6875005 0 0 0 0.47022,-0.15674 6.6874998,6.6874998 0 0 0 0.28735,-0.10449 6.6875005,6.6875005 0 0 0 0.49634,-0.23512 6.6874998,6.6874998 0 0 0 0.5747,-0.33959 6.6875005,6.6875005 0 0 0 0.39185,-0.26123 6.6874998,6.6874998 0 0 0 0.23511,-0.18286 6.6875005,6.6875005 0 0 0 0.26123,-0.2351 6.6874998,6.6874998 0 0 0 0.23511,-0.20899 6.6875005,6.6875005 0 0 0 0.20898,-0.2351 6.6874998,6.6874998 0 0 0 0.18286,-0.18287 6.6875005,6.6875005 0 0 0 0.23511,-0.31348 6.6874998,6.6874998 0 0 0 0.15674,-0.20899 6.6875005,6.6875005 0 0 0 0.10449,-0.18286 6.6875005,6.6875005 0 0 0 0.3396,-0.57471 6.6874998,6.6874998 0 0 0 0.20898,-0.41797 6.6875005,6.6875005 0 0 0 0.0784,-0.18285 6.6874998,6.6874998 0 0 0 0.15674,-0.44409 6.6875005,6.6875005 0 0 0 0.0523,-0.209 6.6874998,6.6874998 0 0 0 0.10449,-0.44409 6.6875005,6.6875005 0 0 0 0.0261,-0.18285 6.6875005,6.6875005 0 0 0 0.0784,-0.6792 6.6874998,6.6874998 0 0 0 0.0261,-0.47022 6.6875005,6.6875005 0 0 0 -0.0261,-0.47021 6.6874998,6.6874998 0 0 0 -0.0784,-0.67921 6.6875005,6.6875005 0 0 0 -0.0261,-0.18285 6.6874998,6.6874998 0 0 0 -0.10449,-0.44409 6.6875005,6.6875005 0 0 0 -0.0523,-0.20899 6.6874998,6.6874998 0 0 0 -0.15674,-0.44409 6.6875005,6.6875005 0 0 0 -0.0784,-0.18285 6.6874998,6.6874998 0 0 0 -0.20898,-0.41797 6.6874998,6.6874998 0 0 0 -0.3396,-0.57471 6.6875005,6.6875005 0 0 0 -0.10449,-0.18287 6.6874998,6.6874998 0 0 0 -0.26123,-0.36572 6.6875005,6.6875005 0 0 0 -0.13062,-0.15674 6.6874998,6.6874998 0 0 0 -0.39184,-0.41797 6.6875005,6.6875005 0 0 0 -0.23511,-0.20899 6.6874998,6.6874998 0 0 0 -0.26123,-0.2351 6.6875005,6.6875005 0 0 0 -0.23511,-0.18287 6.6874998,6.6874998 0 0 0 -0.39185,-0.26122 6.6875005,6.6875005 0 0 0 -0.5747,-0.33959 6.6874998,6.6874998 0 0 0 -0.49634,-0.23512 6.6875005,6.6875005 0 0 0 -0.28735,-0.10449 6.6874998,6.6874998 0 0 0 -0.47022,-0.15674 6.6875005,6.6875005 0 0 0 -0.0784,-0.0261 6.6874998,6.6874998 0 0 0 -0.54858,-0.1045 6.6875005,6.6875005 0 0 0 -0.6792,-0.0784 6.6874998,6.6874998 0 0 0 -0.47022,-0.0261 z"
         id="circle851"
         inkscape:connector-curvature="0" />
      <path
         style="opacity:1;fill:#7a7a7a;fill-opacity:1;stroke:none;stroke-width:1.57170749;stroke-miterlimit:4;stroke-dasharray:none;stroke-dashoffset:0;stroke-opacity:1"
         d="M 8 5 A 3.0000001 3.0000001 0 0 0 5 8 A 3.0000001 3.0000001 0 0 0 8 11 A 3.0000001 3.0000001 0 0 0 11 8 A 3.0000001 3.0000001 0 0 0 8 5 z M 8 6 A 2 2 0 0 1 10 8 A 2 2 0 0 1 8 10 A 2 2 0 0 1 6 8 A 2 2 0 0 1 8 6 z "
         transform="matrix(13.375001,0,0,13.375001,3.749992,11.399798)"
         id="path18" />
      <path
         inkscape:connector-curvature="0"
         id="path854"
         d="m 117.43755,105.0248 a 6.6874998,6.6874998 0 0 0 -0.47021,0.0261 6.6874998,6.6874998 0 0 0 -0.6792,0.0784 6.6874998,6.6874998 0 0 0 -0.54858,0.1045 6.6875005,6.6875005 0 0 0 -0.0784,0.0261 6.6874998,6.6874998 0 0 0 -0.47022,0.15674 6.6875005,6.6875005 0 0 0 -0.28735,0.10449 6.6874998,6.6874998 0 0 0 -0.0784,0.0261 6.6875005,6.6875005 0 0 0 -0.41797,0.209 6.6874998,6.6874998 0 0 0 -0.57471,0.33959 6.6874998,6.6874998 0 0 0 -0.39184,0.26122 6.6875005,6.6875005 0 0 0 -0.23511,0.18287 6.6874998,6.6874998 0 0 0 -0.26123,0.2351 6.6875005,6.6875005 0 0 0 -0.23511,0.20899 6.6874998,6.6874998 0 0 0 -0.20898,0.2351 6.6875005,6.6875005 0 0 0 -0.23511,0.26124 6.6874998,6.6874998 0 0 0 -0.18286,0.23511 6.6875005,6.6875005 0 0 0 -0.15674,0.20898 6.6874998,6.6874998 0 0 0 -0.10449,0.18287 6.6875005,6.6875005 0 0 0 -0.3396,0.57471 6.6875005,6.6875005 0 0 0 -0.23511,0.49633 6.6874998,6.6874998 0 0 0 -0.10449,0.28735 6.6875005,6.6875005 0 0 0 -0.15674,0.44409 6.6874998,6.6874998 0 0 0 -0.0261,0.1045 6.6875005,6.6875005 0 0 0 -0.0784,0.36572 6.6874998,6.6874998 0 0 0 -0.0261,0.18285 6.6875005,6.6875005 0 0 0 -0.0784,0.67921 6.6874998,6.6874998 0 0 0 -0.0261,0.47021 6.6875005,6.6875005 0 0 0 0.0261,0.47022 6.6874998,6.6874998 0 0 0 0.0784,0.6792 6.6874998,6.6874998 0 0 0 0.10449,0.54858 6.6875005,6.6875005 0 0 0 0.0261,0.1045 6.6874998,6.6874998 0 0 0 0.15674,0.44409 6.6875005,6.6875005 0 0 0 0.10449,0.28735 6.6874998,6.6874998 0 0 0 0.0261,0.0784 6.6875005,6.6875005 0 0 0 0.20899,0.41797 6.6874998,6.6874998 0 0 0 0.3396,0.57471 6.6874998,6.6874998 0 0 0 0.26123,0.39185 6.6875005,6.6875005 0 0 0 0.18286,0.2351 6.6874998,6.6874998 0 0 0 0.23511,0.26125 6.6875005,6.6875005 0 0 0 0.20898,0.2351 6.6874998,6.6874998 0 0 0 0.23511,0.20899 6.6875005,6.6875005 0 0 0 0.26123,0.2351 6.6874998,6.6874998 0 0 0 0.23511,0.18286 6.6875005,6.6875005 0 0 0 0.20898,0.15673 6.6874998,6.6874998 0 0 0 0.18286,0.1045 6.6875005,6.6875005 0 0 0 0.57471,0.33959 6.6875005,6.6875005 0 0 0 0.49634,0.23512 6.6874998,6.6874998 0 0 0 0.28735,0.10449 6.6875005,6.6875005 0 0 0 0.47021,0.15674 6.6874998,6.6874998 0 0 0 0.0784,0.0261 6.6875005,6.6875005 0 0 0 0.36573,0.0784 6.6874998,6.6874998 0 0 0 0.18286,0.0261 6.6875005,6.6875005 0 0 0 0.6792,0.0784 6.6874998,6.6874998 0 0 0 0.47021,0.0261 6.6874998,6.6874998 0 0 0 0.47022,-0.0261 6.6874998,6.6874998 0 0 0 0.6792,-0.0784 6.6875005,6.6875005 0 0 0 0.54858,-0.1045 6.6874998,6.6874998 0 0 0 0.0784,-0.0261 6.6875005,6.6875005 0 0 0 0.47022,-0.15674 6.6874998,6.6874998 0 0 0 0.28735,-0.10449 6.6875005,6.6875005 0 0 0 0.49634,-0.23512 6.6874998,6.6874998 0 0 0 0.5747,-0.33959 6.6875005,6.6875005 0 0 0 0.39185,-0.26123 6.6874998,6.6874998 0 0 0 0.23511,-0.18286 6.6875005,6.6875005 0 0 0 0.26123,-0.2351 6.6874998,6.6874998 0 0 0 0.23511,-0.20899 6.6875005,6.6875005 0 0 0 0.20898,-0.2351 6.6874998,6.6874998 0 0 0 0.18286,-0.18287 6.6875005,6.6875005 0 0 0 0.23511,-0.31348 6.6874998,6.6874998 0 0 0 0.15674,-0.20899 6.6875005,6.6875005 0 0 0 0.10449,-0.18286 6.6875005,6.6875005 0 0 0 0.3396,-0.57471 6.6874998,6.6874998 0 0 0 0.20898,-0.41797 6.6875005,6.6875005 0 0 0 0.0784,-0.18285 6.6874998,6.6874998 0 0 0 0.15674,-0.44409 6.6875005,6.6875005 0 0 0 0.0523,-0.209 6.6874998,6.6874998 0 0 0 0.10449,-0.44409 6.6875005,6.6875005 0 0 0 0.0261,-0.18285 6.6875005,6.6875005 0 0 0 0.0784,-0.6792 6.6874998,6.6874998 0 0 0 0.0261,-0.47022 6.6875005,6.6875005 0 0 0 -0.0261,-0.47021 6.6874998,6.6874998 0 0 0 -0.0784,-0.67921 6.6875005,6.6875005 0 0 0 -0.0261,-0.18285 6.6874998,6.6874998 0 0 0 -0.10449,-0.44409 6.6875005,6.6875005 0 0 0 -0.0523,-0.20899 6.6874998,6.6874998 0 0 0 -0.15674,-0.44409 6.6875005,6.6875005 0 0 0 -0.0784,-0.18285 6.6874998,6.6874998 0 0 0 -0.20898,-0.41797 6.6874998,6.6874998 0 0 0 -0.3396,-0.57471 6.6875005,6.6875005 0 0 0 -0.10449,-0.18287 6.6874998,6.6874998 0 0 0 -0.26123,-0.36572 6.6875005,6.6875005 0 0 0 -0.13062,-0.15674 6.6874998,6.6874998 0 0 0 -0.39184,-0.41797 6.6875005,6.6875005 0 0 0 -0.23511,-0.20899 6.6874998,6.6874998 0 0 0 -0.26123,-0.2351 6.6875005,6.6875005 0 0 0 -0.23511,-0.18287 6.6874998,6.6874998 0 0 0 -0.39185,-0.26122 6.6875005,6.6875005 0 0 0 -0.5747,-0.33959 6.6874998,6.6874998 0 0 0 -0.49634,-0.23512 6.6875005,6.6875005 0 0 0 -0.28735,-0.10449 6.6874998,6.6874998 0 0 0 -0.47022,-0.15674 6.6875005,6.6875005 0 0 0 -0.0784,-0.0261 6.6874998,6.6874998 0 0 0 -0.54858,-0.1045 6.6875005,6.6875005 0 0 0 -0.6792,-0.0784 6.6874998,6.6874998 0 0 0 -0.47022,-0.0261 z"
         style="opacity:1;fill:#7a7a7a;fill-opacity:1;stroke:none;stroke-width:23.19148827;stroke-miterlimit:4;stroke-dasharray:none;stroke-dashoffset:0;stroke-opacity:1" />
      <path
         inkscape:connector-curvature="0"
         id="path856"
         d="m 104.06249,118.3998 a 6.6874998,6.6874998 0 0 0 -0.47021,0.0261 6.6874998,6.6874998 0 0 0 -0.6792,0.0784 6.6874998,6.6874998 0 0 0 -0.54858,0.1045 6.6875005,6.6875005 0 0 0 -0.0784,0.0261 6.6874998,6.6874998 0 0 0 -0.47022,0.15674 6.6875005,6.6875005 0 0 0 -0.28735,0.10449 6.6874998,6.6874998 0 0 0 -0.0784,0.0261 6.6875005,6.6875005 0 0 0 -0.41797,0.209 6.6874998,6.6874998 0 0 0 -0.57471,0.33959 6.6874998,6.6874998 0 0 0 -0.39184,0.26122 6.6875005,6.6875005 0 0 0 -0.235111,0.18287 6.6874998,6.6874998 0 0 0 -0.261231,0.2351 6.6875005,6.6875005 0 0 0 -0.235107,0.20899 6.6874998,6.6874998 0 0 0 -0.208985,0.2351 6.6875005,6.6875005 0 0 0 -0.235107,0.26124 6.6874998,6.6874998 0 0 0 -0.182862,0.23511 6.6875005,6.6875005 0 0 0 -0.156738,0.20898 6.6874998,6.6874998 0 0 0 -0.104492,0.18287 6.6875005,6.6875005 0 0 0 -0.3396,0.57471 6.6875005,6.6875005 0 0 0 -0.235107,0.49633 6.6874998,6.6874998 0 0 0 -0.104492,0.28735 6.6875005,6.6875005 0 0 0 -0.156739,0.44409 6.6874998,6.6874998 0 0 0 -0.02612,0.1045 6.6875005,6.6875005 0 0 0 -0.07837,0.36572 6.6874998,6.6874998 0 0 0 -0.02612,0.18285 6.6875005,6.6875005 0 0 0 -0.07837,0.67921 6.6874998,6.6874998 0 0 0 -0.02612,0.47021 6.6875005,6.6875005 0 0 0 0.02612,0.47022 6.6874998,6.6874998 0 0 0 0.07837,0.6792 6.6874998,6.6874998 0 0 0 0.104492,0.54858 6.6875005,6.6875005 0 0 0 0.02612,0.1045 6.6874998,6.6874998 0 0 0 0.156739,0.44409 6.6875005,6.6875005 0 0 0 0.104492,0.28735 6.6874998,6.6874998 0 0 0 0.02612,0.0784 6.6875005,6.6875005 0 0 0 0.208984,0.41797 6.6874998,6.6874998 0 0 0 0.3396,0.57471 6.6874998,6.6874998 0 0 0 0.26123,0.39185 6.6875005,6.6875005 0 0 0 0.182862,0.2351 6.6874998,6.6874998 0 0 0 0.235107,0.26125 6.6875005,6.6875005 0 0 0 0.208985,0.2351 6.6874998,6.6874998 0 0 0 0.235107,0.20899 6.6875005,6.6875005 0 0 0 0.261231,0.2351 6.6874998,6.6874998 0 0 0 0.235112,0.18286 6.6875005,6.6875005 0 0 0 0.20898,0.15673 6.6874998,6.6874998 0 0 0 0.18286,0.1045 6.6875005,6.6875005 0 0 0 0.57471,0.33959 6.6875005,6.6875005 0 0 0 0.49634,0.23512 6.6874998,6.6874998 0 0 0 0.28735,0.10449 6.6875005,6.6875005 0 0 0 0.47021,0.15674 6.6874998,6.6874998 0 0 0 0.0784,0.0261 6.6875005,6.6875005 0 0 0 0.36573,0.0784 6.6874998,6.6874998 0 0 0 0.18286,0.0261 6.6875005,6.6875005 0 0 0 0.6792,0.0784 6.6874998,6.6874998 0 0 0 0.47021,0.0261 6.6874998,6.6874998 0 0 0 0.47022,-0.0261 6.6874998,6.6874998 0 0 0 0.6792,-0.0784 6.6875005,6.6875005 0 0 0 0.54858,-0.1045 6.6874998,6.6874998 0 0 0 0.0784,-0.0261 6.6875005,6.6875005 0 0 0 0.47022,-0.15674 6.6874998,6.6874998 0 0 0 0.28735,-0.10449 6.6875005,6.6875005 0 0 0 0.49634,-0.23512 6.6874998,6.6874998 0 0 0 0.5747,-0.33959 6.6875005,6.6875005 0 0 0 0.39185,-0.26123 6.6874998,6.6874998 0 0 0 0.23511,-0.18286 6.6875005,6.6875005 0 0 0 0.26123,-0.2351 6.6874998,6.6874998 0 0 0 0.23511,-0.20899 6.6875005,6.6875005 0 0 0 0.20898,-0.2351 6.6874998,6.6874998 0 0 0 0.18286,-0.18287 6.6875005,6.6875005 0 0 0 0.23511,-0.31348 6.6874998,6.6874998 0 0 0 0.15674,-0.20899 6.6875005,6.6875005 0 0 0 0.10449,-0.18286 6.6875005,6.6875005 0 0 0 0.3396,-0.57471 6.6874998,6.6874998 0 0 0 0.20898,-0.41797 6.6875005,6.6875005 0 0 0 0.0784,-0.18285 6.6874998,6.6874998 0 0 0 0.15674,-0.44409 6.6875005,6.6875005 0 0 0 0.0523,-0.209 6.6874998,6.6874998 0 0 0 0.10449,-0.44409 6.6875005,6.6875005 0 0 0 0.0261,-0.18285 6.6875005,6.6875005 0 0 0 0.0784,-0.6792 6.6874998,6.6874998 0 0 0 0.0261,-0.47022 6.6875005,6.6875005 0 0 0 -0.0261,-0.47021 6.6874998,6.6874998 0 0 0 -0.0784,-0.67921 6.6875005,6.6875005 0 0 0 -0.0261,-0.18285 6.6874998,6.6874998 0 0 0 -0.10449,-0.44409 6.6875005,6.6875005 0 0 0 -0.0523,-0.20899 6.6874998,6.6874998 0 0 0 -0.15674,-0.44409 6.6875005,6.6875005 0 0 0 -0.0784,-0.18285 6.6874998,6.6874998 0 0 0 -0.20898,-0.41797 6.6874998,6.6874998 0 0 0 -0.3396,-0.57471 6.6875005,6.6875005 0 0 0 -0.10449,-0.18287 6.6874998,6.6874998 0 0 0 -0.26123,-0.36572 6.6875005,6.6875005 0 0 0 -0.13062,-0.15674 6.6874998,6.6874998 0 0 0 -0.39184,-0.41797 6.6875005,6.6875005 0 0 0 -0.23511,-0.20899 6.6874998,6.6874998 0 0 0 -0.26123,-0.2351 6.6875005,6.6875005 0 0 0 -0.23511,-0.18287 6.6874998,6.6874998 0 0 0 -0.39185,-0.26122 6.6875005,6.6875005 0 0 0 -0.5747,-0.33959 6.6874998,6.6874998 0 0 0 -0.49634,-0.23512 6.6875005,6.6875005 0 0 0 -0.28735,-0.10449 6.6874998,6.6874998 0 0 0 -0.47022,-0.15674 6.6875005,6.6875005 0 0 0 -0.0784,-0.0261 6.6874998,6.6874998 0 0 0 -0.54858,-0.1045 6.6875005,6.6875005 0 0 0 -0.6792,-0.0784 6.6874998,6.6874998 0 0 0 -0.47022,-0.0261 z"
         style="opacity:1;fill:#7a7a7a;fill-opacity:1;stroke:none;stroke-width:23.19148827;stroke-miterlimit:4;stroke-dasharray:none;stroke-dashoffset:0;stroke-opacity:1" />
      <path
         style="opacity:1;fill:#7a7a7a;fill-opacity:1;stroke:none;stroke-width:23.19148827;stroke-miterlimit:4;stroke-dasharray:none;stroke-dashoffset:0;stroke-opacity:1"
         d="m 117.43755,118.3998 a 6.6874998,6.6874998 0 0 0 -0.47021,0.0261 6.6874998,6.6874998 0 0 0 -0.6792,0.0784 6.6874998,6.6874998 0 0 0 -0.54858,0.1045 6.6875005,6.6875005 0 0 0 -0.0784,0.0261 6.6874998,6.6874998 0 0 0 -0.47022,0.15674 6.6875005,6.6875005 0 0 0 -0.28735,0.10449 6.6874998,6.6874998 0 0 0 -0.0784,0.0261 6.6875005,6.6875005 0 0 0 -0.41797,0.209 6.6874998,6.6874998 0 0 0 -0.57471,0.33959 6.6874998,6.6874998 0 0 0 -0.39184,0.26122 6.6875005,6.6875005 0 0 0 -0.23511,0.18287 6.6874998,6.6874998 0 0 0 -0.26123,0.2351 6.6875005,6.6875005 0 0 0 -0.23511,0.20899 6.6874998,6.6874998 0 0 0 -0.20898,0.2351 6.6875005,6.6875005 0 0 0 -0.23511,0.26124 6.6874998,6.6874998 0 0 0 -0.18286,0.23511 6.6875005,6.6875005 0 0 0 -0.15674,0.20898 6.6874998,6.6874998 0 0 0 -0.10449,0.18287 6.6875005,6.6875005 0 0 0 -0.3396,0.57471 6.6875005,6.6875005 0 0 0 -0.23511,0.49633 6.6874998,6.6874998 0 0 0 -0.10449,0.28735 6.6875005,6.6875005 0 0 0 -0.15674,0.44409 6.6874998,6.6874998 0 0 0 -0.0261,0.1045 6.6875005,6.6875005 0 0 0 -0.0784,0.36572 6.6874998,6.6874998 0 0 0 -0.0261,0.18285 6.6875005,6.6875005 0 0 0 -0.0784,0.67921 6.6874998,6.6874998 0 0 0 -0.0261,0.47021 6.6875005,6.6875005 0 0 0 0.0261,0.47022 6.6874998,6.6874998 0 0 0 0.0784,0.6792 6.6874998,6.6874998 0 0 0 0.10449,0.54858 6.6875005,6.6875005 0 0 0 0.0261,0.1045 6.6874998,6.6874998 0 0 0 0.15674,0.44409 6.6875005,6.6875005 0 0 0 0.10449,0.28735 6.6874998,6.6874998 0 0 0 0.0261,0.0784 6.6875005,6.6875005 0 0 0 0.20899,0.41797 6.6874998,6.6874998 0 0 0 0.3396,0.57471 6.6874998,6.6874998 0 0 0 0.26123,0.39185 6.6875005,6.6875005 0 0 0 0.18286,0.2351 6.6874998,6.6874998 0 0 0 0.23511,0.26125 6.6875005,6.6875005 0 0 0 0.20898,0.2351 6.6874998,6.6874998 0 0 0 0.23511,0.20899 6.6875005,6.6875005 0 0 0 0.26123,0.2351 6.6874998,6.6874998 0 0 0 0.23511,0.18286 6.6875005,6.6875005 0 0 0 0.20898,0.15673 6.6874998,6.6874998 0 0 0 0.18286,0.1045 6.6875005,6.6875005 0 0 0 0.57471,0.33959 6.6875005,6.6875005 0 0 0 0.49634,0.23512 6.6874998,6.6874998 0 0 0 0.28735,0.10449 6.6875005,6.6875005 0 0 0 0.47021,0.15674 6.6874998,6.6874998 0 0 0 0.0784,0.0261 6.6875005,6.6875005 0 0 0 0.36573,0.0784 6.6874998,6.6874998 0 0 0 0.18286,0.0261 6.6875005,6.6875005 0 0 0 0.6792,0.0784 6.6874998,6.6874998 0 0 0 0.47021,0.0261 6.6874998,6.6874998 0 0 0 0.47022,-0.0261 6.6874998,6.6874998 0 0 0 0.6792,-0.0784 6.6875005,6.6875005 0 0 0 0.54858,-0.1045 6.6874998,6.6874998 0 0 0 0.0784,-0.0261 6.6875005,6.6875005 0 0 0 0.47022,-0.15674 6.6874998,6.6874998 0 0 0 0.28735,-0.10449 6.6875005,6.6875005 0 0 0 0.49634,-0.23512 6.6874998,6.6874998 0 0 0 0.5747,-0.33959 6.6875005,6.6875005 0 0 0 0.39185,-0.26123 6.6874998,6.6874998 0 0 0 0.23511,-0.18286 6.6875005,6.6875005 0 0 0 0.26123,-0.2351 6.6874998,6.6874998 0 0 0 0.23511,-0.20899 6.6875005,6.6875005 0 0 0 0.20898,-0.2351 6.6874998,6.6874998 0 0 0 0.18286,-0.18287 6.6875005,6.6875005 0 0 0 0.23511,-0.31348 6.6874998,6.6874998 0 0 0 0.15674,-0.20899 6.6875005,6.6875005 0 0 0 0.10449,-0.18286 6.6875005,6.6875005 0 0 0 0.3396,-0.57471 6.6874998,6.6874998 0 0 0 0.20898,-0.41797 6.6875005,6.6875005 0 0 0 0.0784,-0.18285 6.6874998,6.6874998 0 0 0 0.15674,-0.44409 6.6875005,6.6875005 0 0 0 0.0523,-0.209 6.6874998,6.6874998 0 0 0 0.10449,-0.44409 6.6875005,6.6875005 0 0 0 0.0261,-0.18285 6.6875005,6.6875005 0 0 0 0.0784,-0.6792 6.6874998,6.6874998 0 0 0 0.0261,-0.47022 6.6875005,6.6875005 0 0 0 -0.0261,-0.47021 6.6874998,6.6874998 0 0 0 -0.0784,-0.67921 6.6875005,6.6875005 0 0 0 -0.0261,-0.18285 6.6874998,6.6874998 0 0 0 -0.10449,-0.44409 6.6875005,6.6875005 0 0 0 -0.0523,-0.20899 6.6874998,6.6874998 0 0 0 -0.15674,-0.44409 6.6875005,6.6875005 0 0 0 -0.0784,-0.18285 6.6874998,6.6874998 0 0 0 -0.20898,-0.41797 6.6874998,6.6874998 0 0 0 -0.3396,-0.57471 6.6875005,6.6875005 0 0 0 -0.10449,-0.18287 6.6874998,6.6874998 0 0 0 -0.26123,-0.36572 6.6875005,6.6875005 0 0 0 -0.13062,-0.15674 6.6874998,6.6874998 0 0 0 -0.39184,-0.41797 6.6875005,6.6875005 0 0 0 -0.23511,-0.20899 6.6874998,6.6874998 0 0 0 -0.26123,-0.2351 6.6875005,6.6875005 0 0 0 -0.23511,-0.18287 6.6874998,6.6874998 0 0 0 -0.39185,-0.26122 6.6875005,6.6875005 0 0 0 -0.5747,-0.33959 6.6874998,6.6874998 0 0 0 -0.49634,-0.23512 6.6875005,6.6875005 0 0 0 -0.28735,-0.10449 6.6874998,6.6874998 0 0 0 -0.47022,-0.15674 6.6875005,6.6875005 0 0 0 -0.0784,-0.0261 6.6874998,6.6874998 0 0 0 -0.54858,-0.1045 6.6875005,6.6875005 0 0 0 -0.6792,-0.0784 6.6874998,6.6874998 0 0 0 -0.47022,-0.0261 z"
         id="path858"
         inkscape:connector-curvature="0" />
    </g>
  </g>
</svg>
