<?xml version="1.0" encoding="UTF-8" standalone="no"?>
<!-- Created with Inkscape (http://www.inkscape.org/) -->

<svg
   xmlns:dc="http://purl.org/dc/elements/1.1/"
   xmlns:cc="http://creativecommons.org/ns#"
   xmlns:rdf="http://www.w3.org/1999/02/22-rdf-syntax-ns#"
   xmlns:svg="http://www.w3.org/2000/svg"
   xmlns="http://www.w3.org/2000/svg"
   xmlns:sodipodi="http://sodipodi.sourceforge.net/DTD/sodipodi-0.dtd"
   xmlns:inkscape="http://www.inkscape.org/namespaces/inkscape"
   width="16"
   height="16"
   viewBox="0 0 4.2333332 4.2333335"
   version="1.1"
   id="svg92"
   inkscape:version="0.92.3 (2405546, 2018-03-11)"
   sodipodi:docname="com.github.manexim.home.logo.philips.hue-symbolic.svg">
  <defs
     id="defs86">
    <clipPath
       clipPathUnits="userSpaceOnUse"
       id="clipPath22">
      <path
         d="m 3506.8,4218.21 c 37.51,-1.89 72.86,-16.27 95.72,-42.87 17.09,-19.88 26.34,-47.99 27.33,-76.37 1.27,-36.19 -9.08,-64.12 -27.84,-84.2 -20.2,-21.61 -50.15,-34.14 -85.89,-38.11 -16.05,-1.63 -32.19,-0.19 -48.29,-0.78 h -86.89 l 0.01,118.95 c -0.15,33.69 12.52,63.72 30.66,85.44 21.31,25.51 53.32,40.07 95.19,37.94 z m -577.51,46.39 v -281.76 h -45.88 v 281.76 z m 125.59,-571.89 c 48.87,0 97.98,20.78 130.48,58.59 0.11,0.01 0.25,0.1 0.43,0.31 l 0.61,0.72 c 0.21,0.26 0.64,0.77 0.85,1.04 5.1,-17.74 14.68,-34.83 29.75,-45.94 14.59,-10.98 33.31,-15.14 51.32,-14.74 0.05,15.08 -0.08,30.17 0.05,45.25 -7.4,0.47 -15.21,0.73 -21.78,4.57 -3.99,2.16 -6.83,5.75 -9.6,9.22 -5.99,11.34 -9.14,23.95 -10.82,36.62 -2.88,19.67 -2.97,39.51 -2.97,59.34 0.18,3.29 0.28,6.64 0.28,10.04 l -0.25,66.68 h -46.71 l 0.07,-57.18 c 0.11,-94.73 -63.62,-128.48 -125.98,-128.48 -80.2,0 -121.45,57.77 -121.98,125.12 l -0.48,60.47 h -45.87 l 0.49,-49.47 c 0,-121.18 76.47,-182.16 172.11,-182.16 z m 168.37,571.89 v -281.76 h -46.73 V 4264.6 Z M 2476.88,3924.52 V 3692.71 H 2431 v 231.81 z m 126.07,340.08 c 104.73,0 168.6,-75.9 168.6,-175.92 l -0.17,-10.18 h 0.17 v -95.75 h -45.87 v 95.75 8.16 c 0,86.67 -54.84,132.08 -124.04,131.9 -62.03,-0.16 -124.76,-44.06 -124.76,-120.75 v -19.31 -95.75 H 2431 v 95.75 29.41 377.36 h 45.88 v -270.72 c 40.26,40.73 96.83,50.05 126.07,50.05 z m 168.6,-340.08 v -231.81 h -45.87 v 231.81 z m 609.55,5.61 -0.3,-17.61 c 0.27,-17.5 0.06,-30.14 0.04,-47.64 0.24,-17.54 4.5,-37.34 10.88,-53.72 8.12,-20.86 19.63,-37.3 34.75,-49.26 19.49,-15.42 44.05,-22.74 69.12,-23.54 48.86,-1.57 80.65,14.46 112.81,49.31 12.15,-9.1 24.83,-17.47 36.85,-26.72 -33.97,-46.28 -91.82,-68.88 -147.08,-68.2 -36.97,0.46 -73.73,11.55 -102.34,35.27 -20.47,16.97 -35.81,39.43 -45.67,63.92 -7,17.41 -11.42,35.81 -13.65,54.43 -1.84,14.06 -1.24,28.26 -1.33,42.39 l -0.08,41.37 h -66.78 v 45.75 h 66.78 v 101.51 c 0,53.19 7.31,91.15 41.35,132.06 29.59,35.57 72.51,55.08 123.37,54.97 57.26,-0.12 109.63,-22.35 141.98,-63.96 20.98,-26.97 32.72,-65.03 33.9,-102.58 1.44,-46.04 -14.16,-85.39 -40.93,-114.34 -29.58,-31.96 -72.8,-51.24 -121.77,-52.81 -9.81,-1.07 -19.71,-0.38 -29.56,-0.58 z"
         id="path20"
         inkscape:connector-curvature="0"
         style="clip-rule:evenodd" />
    </clipPath>
    <linearGradient
       x1="243.10001"
       y1="408.897"
       x2="364.952"
       y2="408.80399"
       gradientUnits="userSpaceOnUse"
       gradientTransform="scale(10)"
       spreadMethod="pad"
       id="linearGradient34">
      <stop
         style="stop-opacity:1;stop-color:#ec1b24"
         offset="0"
         id="stop24" />
      <stop
         style="stop-opacity:1;stop-color:#f5c416"
         offset="0.409449"
         id="stop26" />
      <stop
         style="stop-opacity:1;stop-color:#b4d334"
         offset="0.622047"
         id="stop28" />
      <stop
         style="stop-opacity:1;stop-color:#38beb5"
         offset="0.771654"
         id="stop30" />
      <stop
         style="stop-opacity:1;stop-color:#3f93c2"
         offset="1"
         id="stop32" />
    </linearGradient>
    <clipPath
       clipPathUnits="userSpaceOnUse"
       id="clipPath22-3">
      <path
         d="m 3506.8,4218.21 c 37.51,-1.89 72.86,-16.27 95.72,-42.87 17.09,-19.88 26.34,-47.99 27.33,-76.37 1.27,-36.19 -9.08,-64.12 -27.84,-84.2 -20.2,-21.61 -50.15,-34.14 -85.89,-38.11 -16.05,-1.63 -32.19,-0.19 -48.29,-0.78 h -86.89 l 0.01,118.95 c -0.15,33.69 12.52,63.72 30.66,85.44 21.31,25.51 53.32,40.07 95.19,37.94 z m -577.51,46.39 v -281.76 h -45.88 v 281.76 z m 125.59,-571.89 c 48.87,0 97.98,20.78 130.48,58.59 0.11,0.01 0.25,0.1 0.43,0.31 l 0.61,0.72 c 0.21,0.26 0.64,0.77 0.85,1.04 5.1,-17.74 14.68,-34.83 29.75,-45.94 14.59,-10.98 33.31,-15.14 51.32,-14.74 0.05,15.08 -0.08,30.17 0.05,45.25 -7.4,0.47 -15.21,0.73 -21.78,4.57 -3.99,2.16 -6.83,5.75 -9.6,9.22 -5.99,11.34 -9.14,23.95 -10.82,36.62 -2.88,19.67 -2.97,39.51 -2.97,59.34 0.18,3.29 0.28,6.64 0.28,10.04 l -0.25,66.68 h -46.71 l 0.07,-57.18 c 0.11,-94.73 -63.62,-128.48 -125.98,-128.48 -80.2,0 -121.45,57.77 -121.98,125.12 l -0.48,60.47 h -45.87 l 0.49,-49.47 c 0,-121.18 76.47,-182.16 172.11,-182.16 z m 168.37,571.89 v -281.76 h -46.73 V 4264.6 Z M 2476.88,3924.52 V 3692.71 H 2431 v 231.81 z m 126.07,340.08 c 104.73,0 168.6,-75.9 168.6,-175.92 l -0.17,-10.18 h 0.17 v -95.75 h -45.87 v 95.75 8.16 c 0,86.67 -54.84,132.08 -124.04,131.9 -62.03,-0.16 -124.76,-44.06 -124.76,-120.75 v -19.31 -95.75 H 2431 v 95.75 29.41 377.36 h 45.88 v -270.72 c 40.26,40.73 96.83,50.05 126.07,50.05 z m 168.6,-340.08 v -231.81 h -45.87 v 231.81 z m 609.55,5.61 -0.3,-17.61 c 0.27,-17.5 0.06,-30.14 0.04,-47.64 0.24,-17.54 4.5,-37.34 10.88,-53.72 8.12,-20.86 19.63,-37.3 34.75,-49.26 19.49,-15.42 44.05,-22.74 69.12,-23.54 48.86,-1.57 80.65,14.46 112.81,49.31 12.15,-9.1 24.83,-17.47 36.85,-26.72 -33.97,-46.28 -91.82,-68.88 -147.08,-68.2 -36.97,0.46 -73.73,11.55 -102.34,35.27 -20.47,16.97 -35.81,39.43 -45.67,63.92 -7,17.41 -11.42,35.81 -13.65,54.43 -1.84,14.06 -1.24,28.26 -1.33,42.39 l -0.08,41.37 h -66.78 v 45.75 h 66.78 v 101.51 c 0,53.19 7.31,91.15 41.35,132.06 29.59,35.57 72.51,55.08 123.37,54.97 57.26,-0.12 109.63,-22.35 141.98,-63.96 20.98,-26.97 32.72,-65.03 33.9,-102.58 1.44,-46.04 -14.16,-85.39 -40.93,-114.34 -29.58,-31.96 -72.8,-51.24 -121.77,-52.81 -9.81,-1.07 -19.71,-0.38 -29.56,-0.58 z"
         id="path20-6"
         inkscape:connector-curvature="0"
         style="clip-rule:evenodd" />
    </clipPath>
  </defs>
  <sodipodi:namedview
     id="base"
     pagecolor="#ffffff"
     bordercolor="#666666"
     borderopacity="1.0"
     inkscape:pageopacity="0.0"
     inkscape:pageshadow="2"
     inkscape:zoom="48.8125"
     inkscape:cx="8"
     inkscape:cy="8"
     inkscape:document-units="px"
     inkscape:current-layer="layer1"
     showgrid="false"
     units="px"
     inkscape:window-width="960"
     inkscape:window-height="1017"
     inkscape:window-x="960"
     inkscape:window-y="30"
     inkscape:window-maximized="0"
     showguides="true"
     inkscape:guide-bbox="true" />
  <metadata
     id="metadata89">
    <rdf:RDF>
      <cc:Work
         rdf:about="">
        <dc:format>image/svg+xml</dc:format>
        <dc:type
           rdf:resource="http://purl.org/dc/dcmitype/StillImage" />
        <dc:title />
      </cc:Work>
    </rdf:RDF>
  </metadata>
  <g
     inkscape:label="Ebene 1"
     inkscape:groupmode="layer"
     id="layer1"
     transform="translate(0,-292.76665)">
    <g
       id="g16"
       transform="matrix(0.00340084,0,0,-0.00340084,-8.2674441,308.78924)">
      <g
         clip-path="url(#clipPath22-3)"
         id="g18">
        <path
           inkscape:connector-curvature="0"
           id="path36"
           style="fill:url(#linearGradient34);fill-opacity:1;fill-rule:nonzero;stroke:none"
           d="m 3506.8,4218.21 c 37.51,-1.89 72.86,-16.27 95.72,-42.87 17.09,-19.88 26.34,-47.99 27.33,-76.37 1.27,-36.19 -9.08,-64.12 -27.84,-84.2 -20.2,-21.61 -50.15,-34.14 -85.89,-38.11 -16.05,-1.63 -32.19,-0.19 -48.29,-0.78 h -86.89 l 0.01,118.95 c -0.15,33.69 12.52,63.72 30.66,85.44 21.31,25.51 53.32,40.07 95.19,37.94 z m -577.51,46.39 v -281.76 h -45.88 v 281.76 z m 125.59,-571.89 c 48.87,0 97.98,20.78 130.48,58.59 0.11,0.01 0.25,0.1 0.43,0.31 l 0.61,0.72 c 0.21,0.26 0.64,0.77 0.85,1.04 5.1,-17.74 14.68,-34.83 29.75,-45.94 14.59,-10.98 33.31,-15.14 51.32,-14.74 0.05,15.08 -0.08,30.17 0.05,45.25 -7.4,0.47 -15.21,0.73 -21.78,4.57 -3.99,2.16 -6.83,5.75 -9.6,9.22 -5.99,11.34 -9.14,23.95 -10.82,36.62 -2.88,19.67 -2.97,39.51 -2.97,59.34 0.18,3.29 0.28,6.64 0.28,10.04 l -0.25,66.68 h -46.71 l 0.07,-57.18 c 0.11,-94.73 -63.62,-128.48 -125.98,-128.48 -80.2,0 -121.45,57.77 -121.98,125.12 l -0.48,60.47 h -45.87 l 0.49,-49.47 c 0,-121.18 76.47,-182.16 172.11,-182.16 z m 168.37,571.89 v -281.76 h -46.73 V 4264.6 Z M 2476.88,3924.52 V 3692.71 H 2431 v 231.81 z m 126.07,340.08 c 104.73,0 168.6,-75.9 168.6,-175.92 l -0.17,-10.18 h 0.17 v -95.75 h -45.87 v 95.75 8.16 c 0,86.67 -54.84,132.08 -124.04,131.9 -62.03,-0.16 -124.76,-44.06 -124.76,-120.75 v -19.31 -95.75 H 2431 v 95.75 29.41 377.36 h 45.88 v -270.72 c 40.26,40.73 96.83,50.05 126.07,50.05 z m 168.6,-340.08 v -231.81 h -45.87 v 231.81 z m 609.55,5.61 -0.3,-17.61 c 0.27,-17.5 0.06,-30.14 0.04,-47.64 0.24,-17.54 4.5,-37.34 10.88,-53.72 8.12,-20.86 19.63,-37.3 34.75,-49.26 19.49,-15.42 44.05,-22.74 69.12,-23.54 48.86,-1.57 80.65,14.46 112.81,49.31 12.15,-9.1 24.83,-17.47 36.85,-26.72 -33.97,-46.28 -91.82,-68.88 -147.08,-68.2 -36.97,0.46 -73.73,11.55 -102.34,35.27 -20.47,16.97 -35.81,39.43 -45.67,63.92 -7,17.41 -11.42,35.81 -13.65,54.43 -1.84,14.06 -1.24,28.26 -1.33,42.39 l -0.08,41.37 h -66.78 v 45.75 h 66.78 v 101.51 c 0,53.19 7.31,91.15 41.35,132.06 29.59,35.57 72.51,55.08 123.37,54.97 57.26,-0.12 109.63,-22.35 141.98,-63.96 20.98,-26.97 32.72,-65.03 33.9,-102.58 1.44,-46.04 -14.16,-85.39 -40.93,-114.34 -29.58,-31.96 -72.8,-51.24 -121.77,-52.81 -9.81,-1.07 -19.71,-0.38 -29.56,-0.58 l -102.34,-0.02" />
      </g>
    </g>
  </g>
</svg>
