<?xml version="1.0" encoding="UTF-8" standalone="no"?>
<!-- Created with Inkscape (http://www.inkscape.org/) -->

<svg
   xmlns:dc="http://purl.org/dc/elements/1.1/"
   xmlns:cc="http://creativecommons.org/ns#"
   xmlns:rdf="http://www.w3.org/1999/02/22-rdf-syntax-ns#"
   xmlns:svg="http://www.w3.org/2000/svg"
   xmlns="http://www.w3.org/2000/svg"
   xmlns:sodipodi="http://sodipodi.sourceforge.net/DTD/sodipodi-0.dtd"
   xmlns:inkscape="http://www.inkscape.org/namespaces/inkscape"
   width="48"
   height="48"
   viewBox="0 0 12.7 12.7"
   version="1.1"
   id="svg8"
   inkscape:version="0.92.3 (2405546, 2018-03-11)"
   sodipodi:docname="com.github.manexim.home.svg">
  <defs
     id="defs2" />
  <sodipodi:namedview
     id="base"
     pagecolor="#ffffff"
     bordercolor="#666666"
     borderopacity="1.0"
     inkscape:pageopacity="0.0"
     inkscape:pageshadow="2"
     inkscape:zoom="11.2"
     inkscape:cx="-9.1979495"
     inkscape:cy="17.930194"
     inkscape:document-units="mm"
     inkscape:current-layer="layer1"
     showgrid="false"
     units="px"
     inkscape:window-width="1920"
     inkscape:window-height="1167"
     inkscape:window-x="1920"
     inkscape:window-y="0"
     inkscape:window-maximized="1" />
  <metadata
     id="metadata5">
    <rdf:RDF>
      <cc:Work
         rdf:about="">
        <dc:format>image/svg+xml</dc:format>
        <dc:type
           rdf:resource="http://purl.org/dc/dcmitype/StillImage" />
        <dc:title></dc:title>
      </cc:Work>
    </rdf:RDF>
  </metadata>
  <g
     inkscape:label="Ebene 1"
     inkscape:groupmode="layer"
     id="layer1"
     transform="translate(0,-284.29998)">
    <path
       id="path2"
       d="m 6.3500008,285.49061 c -0.307627,0 -0.468857,0.19134 -0.644923,0.35773 l -4.1592409,4.15671 c -0.2012156,0.20963 -0.3552118,0.36246 -0.3552118,0.64494 0,0.36309 0.278606,0.64491 0.6449209,0.64491 h 0.6449236 v 3.86954 c 0,0.3547 0.2902135,0.64491 0.6449211,0.64491 H 4.470657 5.0601566 7.6398438 8.2520169 9.5746098 c 0.354707,0 0.6449232,-0.29021 0.6449232,-0.64491 v -3.86954 h 0.644921 c 0.366315,0 0.644921,-0.28182 0.644921,-0.64491 0,-0.28248 -0.154001,-0.43534 -0.355209,-0.64494 l -0.934633,-0.93463 v -2.28996 c 0,-0.35471 -0.2902162,-0.64494 -0.6449232,-0.64494 H 8.9296879 c -0.3547071,0 -0.644921,0.29023 -0.644921,0.64494 v 0.35646 l -1.2898441,-1.28858 c -0.176061,-0.16649 -0.337294,-0.35773 -0.644922,-0.35773 z"
       inkscape:connector-curvature="0"
       style="stroke-width:0.64492196;fill:#4caf50;fill-opacity:1" />
    <path
       id="path906"
       d="m 6.35,288.53331 a 1.6668771,1.6668771 0 0 0 -1.6668771,1.66687 c 0,0.56674 0.283369,1.06443 0.7143759,1.36684 v 0.53817 a 0.2381253,0.2381253 0 0 0 0.2381253,0.23812 h 1.4287518 a 0.2381253,0.2381253 0 0 0 0.2381252,-0.23812 v -0.53817 c 0.4310069,-0.30241 0.714376,-0.8001 0.714376,-1.36684 A 1.6668771,1.6668771 0 0 0 6.35,288.53331 m -0.7143759,4.52438 a 0.2381253,0.2381253 0 0 0 0.2381252,0.23812 h 0.9525013 a 0.2381253,0.2381253 0 0 0 0.2381253,-0.23812 v -0.23812 H 5.6356241 Z"
       inkscape:connector-curvature="0"
       style="fill:#000000;fill-opacity:1;stroke-width:0.26458333;opacity:0.07;stroke-miterlimit:4;stroke-dasharray:none;stroke:#000000;stroke-opacity:1" />
    <path
       style="fill:none;fill-opacity:1;stroke-width:0.26458333;stroke-miterlimit:4;stroke-dasharray:none;stroke:#2e7d32;stroke-opacity:1"
       inkscape:connector-curvature="0"
       d="m 6.3500009,285.6229 c -0.2997394,0 -0.4568355,0.18644 -0.6283871,0.34856 l -4.0525977,4.05013 c -0.1960564,0.20426 -0.3461041,0.35317 -0.3461041,0.62841 0,0.35378 0.2714625,0.62837 0.6283851,0.62837 h 0.6283877 v 3.77033 c 0,0.3456 0.2827724,0.62837 0.6283853,0.62837 h 1.3107735 0.5743848 2.5135438 0.5964769 1.2886816 c 0.3456122,0 0.6283873,-0.28277 0.6283873,-0.62837 v -3.77033 h 0.628385 c 0.356923,0 0.628385,-0.27459 0.628385,-0.62837 0,-0.27524 -0.150052,-0.42418 -0.346101,-0.62841 l -0.910669,-0.91066 v -2.23125 c 0,-0.34561 -0.282775,-0.6284 -0.6283872,-0.6284 H 8.8635446 c -0.3456124,0 -0.6283852,0.28279 -0.6283852,0.6284 V 287.227 L 6.978387,285.97146 C 6.8068403,285.80924 6.6497413,285.6229 6.3500009,285.6229 Z"
       id="path891" />
    <path
       style="fill:#000000;fill-opacity:1;stroke-width:0.23812529;opacity:0.15"
       inkscape:connector-curvature="0"
       d="m 6.35,288.53331 a 1.6668771,1.6668771 0 0 0 -1.6668771,1.66687 c 0,0.56674 0.283369,1.06443 0.7143759,1.36684 v 0.53817 a 0.2381253,0.2381253 0 0 0 0.2381253,0.23812 h 1.4287518 a 0.2381253,0.2381253 0 0 0 0.2381252,-0.23812 v -0.53817 c 0.4310069,-0.30241 0.714376,-0.8001 0.714376,-1.36684 A 1.6668771,1.6668771 0 0 0 6.35,288.53331 m -0.7143759,4.52438 a 0.2381253,0.2381253 0 0 0 0.2381252,0.23812 h 0.9525013 a 0.2381253,0.2381253 0 0 0 0.2381253,-0.23812 v -0.23812 H 5.6356241 Z"
       id="path904" />
    <path
       id="path893"
       d="m 6.35,288.26873 a 1.6668771,1.6668771 0 0 0 -1.6668771,1.66687 c 0,0.56674 0.283369,1.06443 0.7143759,1.36684 v 0.53817 a 0.2381253,0.2381253 0 0 0 0.2381253,0.23812 h 1.4287518 a 0.2381253,0.2381253 0 0 0 0.2381252,-0.23812 v -0.53817 c 0.4310069,-0.30241 0.714376,-0.8001 0.714376,-1.36684 A 1.6668771,1.6668771 0 0 0 6.35,288.26873 m -0.7143759,4.52438 a 0.2381253,0.2381253 0 0 0 0.2381252,0.23812 h 0.9525013 a 0.2381253,0.2381253 0 0 0 0.2381253,-0.23812 v -0.23812 H 5.6356241 Z"
       inkscape:connector-curvature="0"
       style="fill:#ffffff;fill-opacity:1;stroke-width:0.23812529" />
  </g>
</svg>
