<?xml version="1.0" encoding="UTF-8" standalone="no"?>
<!-- Created with Inkscape (http://www.inkscape.org/) -->

<svg
   xmlns:dc="http://purl.org/dc/elements/1.1/"
   xmlns:cc="http://creativecommons.org/ns#"
   xmlns:rdf="http://www.w3.org/1999/02/22-rdf-syntax-ns#"
   xmlns:svg="http://www.w3.org/2000/svg"
   xmlns="http://www.w3.org/2000/svg"
   xmlns:xlink="http://www.w3.org/1999/xlink"
   xmlns:sodipodi="http://sodipodi.sourceforge.net/DTD/sodipodi-0.dtd"
   xmlns:inkscape="http://www.inkscape.org/namespaces/inkscape"
   width="128"
   height="128"
   viewBox="0 0 33.866666 33.866668"
   version="1.1"
   id="svg71"
   inkscape:version="0.92.3 (2405546, 2018-03-11)"
   sodipodi:docname="com.github.manexim.home.svg">
  <defs
     id="defs65">
    <linearGradient
       xlink:href="#linearGradient3924"
       id="linearGradient3965"
       gradientUnits="userSpaceOnUse"
       gradientTransform="matrix(0.722241,0,0,0.722241,-0.40044901,262.7329)"
       x1="23.99999"
       y1="4.999989"
       x2="23.99999"
       y2="43" />
    <linearGradient
       id="linearGradient3924">
      <stop
         id="stop3926"
         style="stop-color:#ffffff;stop-opacity:1"
         offset="0" />
      <stop
         id="stop3928"
         style="stop-color:#ffffff;stop-opacity:0.23529412"
         offset="0.06316455" />
      <stop
         id="stop3930"
         style="stop-color:#ffffff;stop-opacity:0.15686275"
         offset="0.95056331" />
      <stop
         id="stop3932"
         style="stop-color:#ffffff;stop-opacity:0.39215687"
         offset="1" />
    </linearGradient>
    <radialGradient
       xlink:href="#linearGradient3688-166-749-5"
       id="radialGradient3946"
       gradientUnits="userSpaceOnUse"
       gradientTransform="matrix(1.9740983,0,0,1.4,28.210531,-17.402531)"
       cx="4.9929786"
       cy="43.5"
       fx="4.9929786"
       fy="43.5"
       r="2.5" />
    <linearGradient
       id="linearGradient3688-166-749-5">
      <stop
         id="stop2883-0"
         style="stop-color:#181818;stop-opacity:1"
         offset="0" />
      <stop
         id="stop2885-5"
         style="stop-color:#181818;stop-opacity:0"
         offset="1" />
    </linearGradient>
    <radialGradient
       xlink:href="#linearGradient3688-166-749-5"
       id="radialGradient3948"
       gradientUnits="userSpaceOnUse"
       gradientTransform="matrix(1.9740983,0,0,1.4,-19.789474,-104.39747)"
       cx="4.9929786"
       cy="43.5"
       fx="4.9929786"
       fy="43.5"
       r="2.5" />
    <linearGradient
       xlink:href="#linearGradient3702-501-757-0"
       id="linearGradient3950"
       gradientUnits="userSpaceOnUse"
       x1="25.058096"
       y1="47.027729"
       x2="25.058096"
       y2="39.999443"
       gradientTransform="matrix(1.005291,0,0,1,-0.12698188,-0.00253193)" />
    <linearGradient
       id="linearGradient3702-501-757-0">
      <stop
         id="stop2895-0"
         style="stop-color:#181818;stop-opacity:0"
         offset="0" />
      <stop
         id="stop2897-2"
         style="stop-color:#181818;stop-opacity:1"
         offset="0.5" />
      <stop
         id="stop2899-6"
         style="stop-color:#181818;stop-opacity:0"
         offset="1" />
    </linearGradient>
    <radialGradient
       xlink:href="#linearGradient3811"
       id="radialGradient3976"
       gradientUnits="userSpaceOnUse"
       gradientTransform="matrix(0.41179548,0,0,0.04492315,18.592363,275.86802)"
       cx="-4.0287771"
       cy="93.467628"
       fx="-4.0287771"
       fy="93.467628"
       r="35.338131" />
    <linearGradient
       id="linearGradient3811">
      <stop
         id="stop3813"
         style="stop-color:#000000;stop-opacity:1"
         offset="0" />
      <stop
         id="stop3815"
         style="stop-color:#000000;stop-opacity:0"
         offset="1" />
    </linearGradient>
  </defs>
  <sodipodi:namedview
     id="base"
     pagecolor="#ffffff"
     bordercolor="#666666"
     borderopacity="1.0"
     inkscape:pageopacity="0.0"
     inkscape:pageshadow="2"
     inkscape:zoom="5.6568542"
     inkscape:cx="18.434343"
     inkscape:cy="42.932119"
     inkscape:document-units="mm"
     inkscape:current-layer="layer1"
     showgrid="true"
     units="px"
     inkscape:window-width="1920"
     inkscape:window-height="1167"
     inkscape:window-x="1920"
     inkscape:window-y="0"
     inkscape:window-maximized="1">
    <inkscape:grid
       type="xygrid"
       id="grid888"
       spacingx="4.2333334"
       spacingy="4.2333334" />
  </sodipodi:namedview>
  <metadata
     id="metadata68">
    <rdf:RDF>
      <cc:Work
         rdf:about="">
        <dc:format>image/svg+xml</dc:format>
        <dc:type
           rdf:resource="http://purl.org/dc/dcmitype/StillImage" />
        <dc:title />
      </cc:Work>
    </rdf:RDF>
  </metadata>
  <g
     inkscape:label="Ebene 1"
     inkscape:groupmode="layer"
     id="layer1"
     transform="translate(0,-263.13332)">
    <path
       id="path2"
       d="m 16.933334,266.44062 c -0.812451,0 -1.238266,0.50535 -1.703253,0.94477 l -10.9846652,10.978 c -0.531416,0.55362 -0.938124,0.95725 -0.938124,1.70329 0,0.95893 0.735806,1.70324 1.703259,1.70324 h 1.703253 v 10.21953 c 0,0.93678 0.766462,1.70323 1.703253,1.70323 h 3.5528882 1.556877 6.813024 1.616758 3.493007 c 0.936784,0 1.703252,-0.76645 1.703252,-1.70323 v -10.21953 h 1.703253 c 0.967453,0 1.703259,-0.74431 1.703259,-1.70324 0,-0.74604 -0.406721,-1.14973 -0.938124,-1.70329 l -2.468388,-2.4684 v -6.04784 c 0,-0.93678 -0.766468,-1.70329 -1.703252,-1.70329 h -1.70326 c -0.936791,0 -1.703253,0.76651 -1.703253,1.70329 v 0.94142 l -3.406512,-3.40318 c -0.46498,-0.43968 -0.890801,-0.94477 -1.703252,-0.94477 z"
       inkscape:connector-curvature="0"
       style="stroke-width:1.70325482;fill:#4caf50;fill-opacity:1" />
    <path
       style="stroke-width:0.26458333;fill:none;fill-opacity:1;stroke-miterlimit:4;stroke-dasharray:none;stroke:#2e7d32;stroke-opacity:1;opacity:1"
       inkscape:connector-curvature="0"
       d="m 16.933334,266.44062 c -0.812451,0 -1.238266,0.50535 -1.703253,0.94477 l -10.9846652,10.978 c -0.531416,0.55362 -0.938124,0.95725 -0.938124,1.70329 0,0.95893 0.735806,1.70324 1.703259,1.70324 h 1.703253 v 10.21953 c 0,0.93678 0.766462,1.70323 1.703253,1.70323 h 3.5528882 1.556877 6.813024 1.616758 3.493007 c 0.936784,0 1.703252,-0.76645 1.703252,-1.70323 v -10.21953 h 1.703253 c 0.967453,0 1.703259,-0.74431 1.703259,-1.70324 0,-0.74604 -0.406721,-1.14973 -0.938124,-1.70329 l -2.468388,-2.4684 v -6.04784 c 0,-0.93678 -0.766468,-1.70329 -1.703252,-1.70329 h -1.70326 c -0.936791,0 -1.703253,0.76651 -1.703253,1.70329 v 0.94142 l -3.406512,-3.40318 c -0.46498,-0.43968 -0.890801,-0.94477 -1.703252,-0.94477 z"
       id="path1001" />
    <path
       id="path1033"
       d="m 16.933333,273.98124 a 4.4450055,4.4450055 0 0 0 -4.445005,4.445 c 0,1.5113 0.755651,2.83846 1.905002,3.64491 v 1.4351 a 0.63500079,0.63500079 0 0 0 0.635001,0.63499 h 3.810005 a 0.63500079,0.63500079 0 0 0 0.635,-0.63499 v -1.4351 c 1.149352,-0.80645 1.905003,-2.13361 1.905003,-3.64491 a 4.4450055,4.4450055 0 0 0 -4.445006,-4.445 m -1.905002,12.06501 a 0.63500079,0.63500079 0 0 0 0.635001,0.63499 h 2.540003 a 0.63500079,0.63500079 0 0 0 0.635001,-0.63499 v -0.635 h -3.810005 z"
       inkscape:connector-curvature="0"
       style="fill:#000000;stroke-width:0.26458333;fill-opacity:1;opacity:0.07;stroke:#000000;stroke-opacity:1;stroke-miterlimit:4;stroke-dasharray:none" />
    <path
       style="fill:#000000;stroke-width:0.63500077;fill-opacity:1;opacity:0.15"
       inkscape:connector-curvature="0"
       d="m 16.933333,273.98124 a 4.4450055,4.4450055 0 0 0 -4.445005,4.445 c 0,1.5113 0.755651,2.83846 1.905002,3.64491 v 1.4351 a 0.63500079,0.63500079 0 0 0 0.635001,0.63499 h 3.810005 a 0.63500079,0.63500079 0 0 0 0.635,-0.63499 v -1.4351 c 1.149352,-0.80645 1.905003,-2.13361 1.905003,-3.64491 a 4.4450055,4.4450055 0 0 0 -4.445006,-4.445 m -1.905002,12.06501 a 0.63500079,0.63500079 0 0 0 0.635001,0.63499 h 2.540003 a 0.63500079,0.63500079 0 0 0 0.635001,-0.63499 v -0.635 h -3.810005 z"
       id="path1031" />
    <path
       id="path1020"
       d="m 16.933333,273.71665 a 4.4450055,4.4450055 0 0 0 -4.445005,4.445 c 0,1.5113 0.755651,2.83846 1.905002,3.64491 v 1.4351 a 0.63500079,0.63500079 0 0 0 0.635001,0.63499 h 3.810005 a 0.63500079,0.63500079 0 0 0 0.635,-0.63499 v -1.4351 c 1.149352,-0.80645 1.905003,-2.13361 1.905003,-3.64491 a 4.4450055,4.4450055 0 0 0 -4.445006,-4.445 m -1.905002,12.06501 a 0.63500079,0.63500079 0 0 0 0.635001,0.63499 h 2.540003 a 0.63500079,0.63500079 0 0 0 0.635001,-0.63499 v -0.635 h -3.810005 z"
       inkscape:connector-curvature="0"
       style="stroke-width:0.63500077;fill:#ffffff" />
    <path
       style="fill:none;fill-opacity:1;stroke:#ffffff;stroke-width:0.26458333;stroke-miterlimit:4;stroke-dasharray:none;stroke-opacity:0"
       inkscape:connector-curvature="0"
       d="m 16.801041,266.83749 c -0.796675,0 -1.214222,0.49555 -1.670179,0.92643 L 4.3594912,278.52876 c -0.5210972,0.54286 -0.919908,0.93865 -0.919908,1.67021 0,0.94031 0.7215186,1.67016 1.670186,1.67016 h 1.6701802 v 10.02111 c 0,0.91858 0.7515792,1.67015 1.6701802,1.67015 h 3.4839004 1.526645 6.680733 1.585365 3.425181 c 0.918594,0 1.67018,-0.75157 1.67018,-1.67015 v -10.02111 h 1.670179 c 0.948669,0 1.670187,-0.72985 1.670187,-1.67016 0,-0.73156 -0.398823,-1.12741 -0.919908,-1.67021 l -2.420458,-2.42048 v -5.9304 c 0,-0.9186 -0.751586,-1.67021 -1.67018,-1.67021 h -1.670186 c -0.918601,0 -1.670181,0.75161 -1.670181,1.67021 v 0.92314 l -3.340366,-3.3371 c -0.455952,-0.43114 -0.873503,-0.92643 -1.67018,-0.92643 z"
       id="path1035" />
  </g>
</svg>
