<?xml version="1.0" encoding="UTF-8" standalone="no"?>
<!-- Created with Inkscape (http://www.inkscape.org/) -->

<svg
   xmlns:dc="http://purl.org/dc/elements/1.1/"
   xmlns:cc="http://creativecommons.org/ns#"
   xmlns:rdf="http://www.w3.org/1999/02/22-rdf-syntax-ns#"
   xmlns:svg="http://www.w3.org/2000/svg"
   xmlns="http://www.w3.org/2000/svg"
   xmlns:sodipodi="http://sodipodi.sourceforge.net/DTD/sodipodi-0.dtd"
   xmlns:inkscape="http://www.inkscape.org/namespaces/inkscape"
   width="32"
   height="32"
   viewBox="0 0 8.4666665 8.4666669"
   version="1.1"
   id="svg8"
   inkscape:version="0.92.3 (2405546, 2018-03-11)"
   sodipodi:docname="com.github.manexim.home.svg">
  <defs
     id="defs2" />
  <sodipodi:namedview
     id="base"
     pagecolor="#ffffff"
     bordercolor="#666666"
     borderopacity="1.0"
     inkscape:pageopacity="0.0"
     inkscape:pageshadow="2"
     inkscape:zoom="22.4"
     inkscape:cx="10.752957"
     inkscape:cy="13.166229"
     inkscape:document-units="mm"
     inkscape:current-layer="layer1"
     showgrid="false"
     units="px"
     inkscape:window-width="1920"
     inkscape:window-height="1167"
     inkscape:window-x="1920"
     inkscape:window-y="0"
     inkscape:window-maximized="1" />
  <metadata
     id="metadata5">
    <rdf:RDF>
      <cc:Work
         rdf:about="">
        <dc:format>image/svg+xml</dc:format>
        <dc:type
           rdf:resource="http://purl.org/dc/dcmitype/StillImage" />
        <dc:title></dc:title>
      </cc:Work>
    </rdf:RDF>
  </metadata>
  <g
     inkscape:label="Ebene 1"
     inkscape:groupmode="layer"
     id="layer1"
     transform="translate(0,-288.53332)">
    <path
       id="path2"
       d="m 4.2333334,289.19478 c -0.2129732,0 -0.3245943,0.13247 -0.4464849,0.24766 l -2.87947742,2.87773 c -0.1393032,0.14512 -0.2459155,0.25093 -0.2459155,0.44649 0,0.25137 0.1928814,0.44648 0.44648492,0.44648 h 0.4464846 v 2.67891 c 0,0.24557 0.2009181,0.44648 0.4464847,0.44648 h 0.9313393 0.4081148 1.7859388 0.4238119 0.9156423 c 0.2455669,0 0.4464849,-0.20091 0.4464849,-0.44648 v -2.67891 h 0.4464846 c 0.2536034,0 0.4464847,-0.19511 0.4464847,-0.44648 0,-0.19556 -0.1066113,-0.30138 -0.2459152,-0.44649 l -0.6470541,-0.64706 v -1.58536 c 0,-0.24556 -0.200918,-0.44649 -0.4464849,-0.44649 H 6.0192722 c -0.2455664,0 -0.4464846,0.20093 -0.4464846,0.44649 v 0.24679 l -0.8929696,-0.8921 c -0.1218898,-0.11526 -0.2335114,-0.24766 -0.4464846,-0.24766 z"
       inkscape:connector-curvature="0"
       style="fill:#4caf50;fill-opacity:1;stroke-width:0.44648468" />
    <path
       style="fill:#4caf50;fill-opacity:1;stroke-width:0.44648468"
       inkscape:connector-curvature="0"
       d="m 4.2333334,289.19478 c -0.2129732,0 -0.3245943,0.13247 -0.4464849,0.24766 l -2.87947742,2.87773 c -0.1393032,0.14512 -0.2459155,0.25093 -0.2459155,0.44649 0,0.25137 0.1928814,0.44648 0.44648492,0.44648 h 0.4464846 v 2.67891 c 0,0.24557 0.2009181,0.44648 0.4464847,0.44648 h 0.9313393 0.4081148 1.7859388 0.4238119 0.9156423 c 0.2455669,0 0.4464849,-0.20091 0.4464849,-0.44648 v -2.67891 h 0.4464846 c 0.2536034,0 0.4464847,-0.19511 0.4464847,-0.44648 0,-0.19556 -0.1066113,-0.30138 -0.2459152,-0.44649 l -0.6470541,-0.64706 v -1.58536 c 0,-0.24556 -0.200918,-0.44649 -0.4464849,-0.44649 H 6.0192722 c -0.2455664,0 -0.4464846,0.20093 -0.4464846,0.44649 v 0.24679 l -0.8929696,-0.8921 c -0.1218898,-0.11526 -0.2335114,-0.24766 -0.4464846,-0.24766 z"
       id="path821" />
    <path
       id="path825"
       d="m 4.2333333,289.32707 c -0.205085,0 -0.312572,0.12757 -0.429948,0.23849 l -2.7728304,2.77115 c -0.13414384,0.13974 -0.23680754,0.24163 -0.23680754,0.42995 0,0.24206 0.1857376,0.42995 0.42994844,0.42995 H 1.653644 v 2.57969 c 0,0.23647 0.1934766,0.42994 0.4299483,0.42994 h 0.896845 0.393 1.719792 0.408116 0.881729 c 0.236472,0 0.429949,-0.19347 0.429949,-0.42994 v -2.57969 h 0.429948 c 0.24421,0 0.429948,-0.18789 0.429948,-0.42995 0,-0.18832 -0.102663,-0.29022 -0.236807,-0.42995 l -0.623089,-0.6231 v -1.52664 c 0,-0.23646 -0.193477,-0.42995 -0.429949,-0.42995 h -0.429948 c -0.236471,0 -0.429948,0.19349 -0.429948,0.42995 v 0.23765 l -0.859897,-0.85906 c -0.117375,-0.11099 -0.224863,-0.23849 -0.429948,-0.23849 z"
       inkscape:connector-curvature="0"
       style="fill:none;fill-opacity:1;stroke:#2e7d32;stroke-width:0.26458332;stroke-miterlimit:4;stroke-dasharray:none;stroke-opacity:1" />
    <path
       id="path910"
       d="m 4.2333333,291.44374 a 1.1112514,1.1112514 0 0 0 -1.1112514,1.11125 c 0,0.37783 0.1889127,0.70962 0.4762506,0.91123 v 0.35877 a 0.1587502,0.1587502 0 0 0 0.1587502,0.15875 h 0.9525012 a 0.1587502,0.1587502 0 0 0 0.1587502,-0.15875 v -0.35877 c 0.2873379,-0.20161 0.4762507,-0.5334 0.4762507,-0.91123 a 1.1112514,1.1112514 0 0 0 -1.1112515,-1.11125 m -0.4762506,3.01625 a 0.1587502,0.1587502 0 0 0 0.1587502,0.15875 h 0.6350008 a 0.1587502,0.1587502 0 0 0 0.1587502,-0.15875 v -0.15875 H 3.7570827 Z"
       inkscape:connector-curvature="0"
       style="fill:#000000;stroke-width:0.26458333;fill-opacity:1;opacity:0.07;stroke:#000000;stroke-opacity:1;stroke-miterlimit:4;stroke-dasharray:none" />
    <path
       style="fill:#000000;stroke-width:0.15875019;fill-opacity:1;opacity:0.15"
       inkscape:connector-curvature="0"
       d="m 4.2333333,291.44374 a 1.1112514,1.1112514 0 0 0 -1.1112514,1.11125 c 0,0.37783 0.1889127,0.70962 0.4762506,0.91123 v 0.35877 a 0.1587502,0.1587502 0 0 0 0.1587502,0.15875 h 0.9525012 a 0.1587502,0.1587502 0 0 0 0.1587502,-0.15875 v -0.35877 c 0.2873379,-0.20161 0.4762507,-0.5334 0.4762507,-0.91123 a 1.1112514,1.1112514 0 0 0 -1.1112515,-1.11125 m -0.4762506,3.01625 a 0.1587502,0.1587502 0 0 0 0.1587502,0.15875 h 0.6350008 a 0.1587502,0.1587502 0 0 0 0.1587502,-0.15875 v -0.15875 H 3.7570827 Z"
       id="path908" />
    <path
       id="path897"
       d="m 4.2333333,291.17915 a 1.1112514,1.1112514 0 0 0 -1.1112514,1.11125 c 0,0.37783 0.1889127,0.70962 0.4762506,0.91123 v 0.35877 a 0.1587502,0.1587502 0 0 0 0.1587502,0.15875 h 0.9525012 a 0.1587502,0.1587502 0 0 0 0.1587502,-0.15875 v -0.35877 c 0.2873379,-0.20161 0.4762507,-0.5334 0.4762507,-0.91123 a 1.1112514,1.1112514 0 0 0 -1.1112515,-1.11125 m -0.4762506,3.01625 a 0.1587502,0.1587502 0 0 0 0.1587502,0.15875 h 0.6350008 a 0.1587502,0.1587502 0 0 0 0.1587502,-0.15875 v -0.15875 H 3.7570827 Z"
       inkscape:connector-curvature="0"
       style="fill:#ffffff;stroke-width:0.15875019" />
  </g>
</svg>
