<?xml version="1.0" encoding="UTF-8" standalone="no"?>
<!-- Created with Inkscape (http://www.inkscape.org/) -->

<svg
   xmlns:dc="http://purl.org/dc/elements/1.1/"
   xmlns:cc="http://creativecommons.org/ns#"
   xmlns:rdf="http://www.w3.org/1999/02/22-rdf-syntax-ns#"
   xmlns:svg="http://www.w3.org/2000/svg"
   xmlns="http://www.w3.org/2000/svg"
   xmlns:xlink="http://www.w3.org/1999/xlink"
   xmlns:sodipodi="http://sodipodi.sourceforge.net/DTD/sodipodi-0.dtd"
   xmlns:inkscape="http://www.inkscape.org/namespaces/inkscape"
   width="64"
   height="64"
   viewBox="0 0 16.933333 16.933334"
   version="1.1"
   id="svg8"
   inkscape:version="0.92.3 (2405546, 2018-03-11)"
   sodipodi:docname="com.github.manexim.home.svg">
  <defs
     id="defs2">
    <linearGradient
       inkscape:collect="always"
       id="linearGradient1041">
      <stop
         style="stop-color:#2e7d32;stop-opacity:1;"
         offset="0"
         id="stop1037" />
      <stop
         style="stop-color:#2e7d32;stop-opacity:0;"
         offset="1"
         id="stop1039" />
    </linearGradient>
    <radialGradient
       gradientTransform="matrix(2.003784,0,0,1.4,27.98813,-17.4)"
       gradientUnits="userSpaceOnUse"
       xlink:href="#linearGradient3688-166-749-654"
       id="radialGradient2873-966-168-714"
       fy="43.5"
       fx="4.9929786"
       r="2.5"
       cy="43.5"
       cx="4.9929786" />
    <linearGradient
       id="linearGradient3688-166-749-654">
      <stop
         offset="0"
         style="stop-color:#181818;stop-opacity:1"
         id="stop3088" />
      <stop
         offset="1"
         style="stop-color:#181818;stop-opacity:0"
         id="stop3090" />
    </linearGradient>
    <radialGradient
       gradientTransform="matrix(2.003784,0,0,1.4,-20.01187,-104.4)"
       gradientUnits="userSpaceOnUse"
       xlink:href="#linearGradient3688-166-749-654"
       id="radialGradient2875-742-326-419"
       fy="43.5"
       fx="4.9929786"
       r="2.5"
       cy="43.5"
       cx="4.9929786" />
    <linearGradient
       gradientUnits="userSpaceOnUse"
       xlink:href="#linearGradient3702-501-757-795"
       id="linearGradient2877-634-617-908"
       y2="39.999443"
       x2="25.058096"
       y1="47.027729"
       x1="25.058096" />
    <linearGradient
       id="linearGradient3702-501-757-795">
      <stop
         offset="0"
         style="stop-color:#181818;stop-opacity:0"
         id="stop3100" />
      <stop
         offset="0.5"
         style="stop-color:#181818;stop-opacity:1"
         id="stop3102" />
      <stop
         offset="1"
         style="stop-color:#181818;stop-opacity:0"
         id="stop3104" />
    </linearGradient>
    <clipPath
       clipPathUnits="userSpaceOnUse"
       id="clipPath925">
      <path
         style="fill:#ffffff;fill-opacity:1;stroke-width:1.20000148"
         inkscape:connector-curvature="0"
         d="m 32.000002,20.000012 a 8.4000104,8.4000104 0 0 0 -8.400011,8.4 c 0,2.856 1.428002,5.364018 3.600005,6.887999 v 2.712038 a 1.2000015,1.2000015 0 0 0 1.200001,1.199962 h 7.200008 a 1.2000015,1.2000015 0 0 0 1.200001,-1.199962 v -2.712038 c 2.172001,-1.523981 3.600001,-4.031999 3.600001,-6.887999 a 8.4000104,8.4000104 0 0 0 -8.400005,-8.4 m -3.600005,22.799999 a 1.2000015,1.2000015 0 0 0 1.200001,1.2 h 4.800006 a 1.2000015,1.2000015 0 0 0 1.200001,-1.2 v -1.199962 h -7.200008 z"
         id="path927" />
    </clipPath>
    <clipPath
       clipPathUnits="userSpaceOnUse"
       id="clipPath1029">
      <path
         style="stroke-width:1.2000016"
         inkscape:connector-curvature="0"
         d="m 31.999999,20.000012 a 8.4000108,8.4000108 0 0 0 -8.40001,8.4 c 0,2.856 1.428001,5.364018 3.600004,6.887999 v 2.712038 a 1.2000015,1.2000015 0 0 0 1.200002,1.199962 h 7.200008 a 1.2000015,1.2000015 0 0 0 1.200002,-1.199962 v -2.712038 c 2.172006,-1.523981 3.600006,-4.031999 3.600006,-6.887999 a 8.4000108,8.4000108 0 0 0 -8.400012,-8.4 m -3.600004,22.799999 a 1.2000015,1.2000015 0 0 0 1.200002,1.2 h 4.800004 a 1.2000015,1.2000015 0 0 0 1.200002,-1.2 v -1.199962 h -7.200008 z"
         id="path1031" />
    </clipPath>
    <filter
       inkscape:collect="always"
       style="color-interpolation-filters:sRGB"
       id="filter1033"
       x="-0.012"
       width="1.024"
       y="-0.012"
       height="1.024">
      <feGaussianBlur
         inkscape:collect="always"
         stdDeviation="0.275"
         id="feGaussianBlur1035" />
    </filter>
    <linearGradient
       inkscape:collect="always"
       xlink:href="#linearGradient1041"
       id="linearGradient1043"
       x1="7.1966648"
       y1="290.12082"
       x2="15.875"
       y2="277.94998"
       gradientUnits="userSpaceOnUse" />
    <filter
       inkscape:collect="always"
       style="color-interpolation-filters:sRGB"
       id="filter1051"
       x="-0.011999995"
       width="1.024"
       y="-0.012000005"
       height="1.024">
      <feGaussianBlur
         inkscape:collect="always"
         stdDeviation="0.072760382"
         id="feGaussianBlur1053" />
    </filter>
  </defs>
  <sodipodi:namedview
     id="base"
     pagecolor="#ffffff"
     bordercolor="#666666"
     borderopacity="1.0"
     inkscape:pageopacity="0.0"
     inkscape:pageshadow="2"
     inkscape:zoom="14.90625"
     inkscape:cx="32"
     inkscape:cy="32"
     inkscape:document-units="px"
     inkscape:current-layer="layer1"
     showgrid="true"
     units="px"
     inkscape:window-width="1920"
     inkscape:window-height="1137"
     inkscape:window-x="0"
     inkscape:window-y="30"
     inkscape:window-maximized="1"
     showguides="true"
     inkscape:guide-bbox="true"
     inkscape:snap-grids="true"
     inkscape:snap-intersection-paths="false"
     inkscape:snap-to-guides="false"
     inkscape:snap-smooth-nodes="true">
    <inkscape:grid
       type="xygrid"
       id="grid12"
       empspacing="4" />
    <sodipodi:guide
       position="0,15.875"
       orientation="0,1"
       id="guide14"
       inkscape:locked="false"
       inkscape:label="x-height"
       inkscape:color="rgb(255,0,0)" />
    <sodipodi:guide
       position="0,8.2020834"
       orientation="0,1"
       id="guide16"
       inkscape:locked="false"
       inkscape:label="mean line"
       inkscape:color="rgb(0,128,0)" />
    <sodipodi:guide
       position="0,1.0583333"
       orientation="0,1"
       id="guide18"
       inkscape:locked="false"
       inkscape:label="base line"
       inkscape:color="rgb(0,0,255)" />
  </sodipodi:namedview>
  <metadata
     id="metadata5">
    <rdf:RDF>
      <cc:Work
         rdf:about="">
        <dc:format>image/svg+xml</dc:format>
        <dc:type
           rdf:resource="http://purl.org/dc/dcmitype/StillImage" />
        <dc:title />
      </cc:Work>
    </rdf:RDF>
  </metadata>
  <g
     inkscape:label="Ebene 1"
     inkscape:groupmode="layer"
     id="layer1"
     transform="translate(0,-280.06665)">
    <g
       transform="matrix(0.44561485,0,0,0.2015873,-1.663718,286.96103)"
       id="g3712"
       style="opacity:0.4">
      <rect
         width="5"
         height="7"
         x="38"
         y="40"
         id="rect2801"
         style="fill:url(#radialGradient2873-966-168-714);fill-opacity:1;stroke:none" />
      <rect
         width="5"
         height="7"
         x="-10"
         y="-47"
         transform="scale(-1)"
         id="rect3696"
         style="fill:url(#radialGradient2875-742-326-419);fill-opacity:1;stroke:none" />
      <rect
         width="28"
         height="7.0000005"
         x="10"
         y="40"
         id="rect3700"
         style="fill:url(#linearGradient2877-634-617-908);fill-opacity:1;stroke:none" />
    </g>
    <path
       style="fill:none;fill-opacity:1;stroke-width:0.99999998;stroke-miterlimit:4;stroke-dasharray:none"
       d="M 32 4.5 C 30.360316 4.5 29.500949 5.5193839 28.5625 6.40625 L 6.3925781 28.5625 C 5.3200771 29.679804 4.5 30.49435 4.5 32 C 4.5 33.935307 5.9849991 35.4375 7.9375 35.4375 L 11.375 35.4375 L 11.375 56.0625 C 11.375 57.953095 12.921871 59.5 14.8125 59.5 L 21.982422 59.5 L 25.125 59.5 L 38.875 59.5 L 42.138672 59.5 L 49.1875 59.5 C 51.078125 59.5 52.625 57.953095 52.625 56.0625 L 52.625 35.4375 L 56.0625 35.4375 C 58.014993 35.4375 59.5 33.935307 59.5 32 C 59.5 30.49435 58.679885 29.679691 57.607422 28.5625 L 52.625 23.580078 L 52.625 11.375 C 52.625 9.4843669 51.078125 7.9375 49.1875 7.9375 L 45.75 7.9375 C 43.859371 7.9375 42.3125 9.4843669 42.3125 11.375 L 42.3125 13.275391 L 35.4375 6.40625 C 34.499077 5.5188547 33.639688 4.5 32 4.5 z M 32 20 A 8.4000105 8.4000105 0 0 1 40.400391 28.400391 C 40.400391 31.256391 38.972784 33.763128 36.800781 35.287109 L 36.800781 38 A 1.2000015 1.2000015 0 0 1 35.599609 39.199219 L 28.400391 39.199219 A 1.2000015 1.2000015 0 0 1 27.199219 38 L 27.199219 35.287109 C 25.027216 33.763128 23.599609 31.256391 23.599609 28.400391 A 8.4000105 8.4000105 0 0 1 32 20 z M 28.400391 41.599609 L 35.599609 41.599609 L 35.599609 42.800781 A 1.2000015 1.2000015 0 0 1 34.400391 44 L 29.599609 44 A 1.2000015 1.2000015 0 0 1 28.400391 42.800781 L 28.400391 41.599609 z "
       id="path897"
       transform="matrix(0.26458334,0,0,0.26458334,0,280.06665)" />
    <path
       id="path998"
       d="m 8.4666684,281.25728 c -0.433834,0 -0.66121,0.26984 -0.909506,0.50449 l -5.8655973,5.86204 c -0.2837646,0.29562 -0.50094,0.51115 -0.50094,0.90952 0,0.51205 0.3929063,0.90949 0.9095085,0.90949 h 0.9095026 v 5.45703 c 0,0.50023 0.4092756,0.9095 0.9095045,0.9095 h 1.8971737 0.831342 3.6380206 0.86332 1.865196 c 0.500224,0 0.909505,-0.40927 0.909505,-0.9095 v -5.45703 H 14.8332 c 0.516601,0 0.909508,-0.39744 0.909508,-0.90949 0,-0.39837 -0.21718,-0.61394 -0.50094,-0.90952 l -1.31807,-1.31808 v -3.22943 c 0,-0.50023 -0.409281,-0.90953 -0.909505,-0.90953 h -0.909506 c -0.500228,0 -0.909506,0.4093 -0.909506,0.90953 v 0.5027 l -1.8190096,-1.81723 c -0.248291,-0.23478 -0.475671,-0.50449 -0.909503,-0.50449 z"
       inkscape:connector-curvature="0"
       style="fill:#4caf50;fill-opacity:1;stroke-width:0.90950507" />
    <path
       style="fill:none;fill-opacity:1;stroke-width:0.26458334;stroke:#2e7d32;stroke-opacity:1;stroke-miterlimit:4;stroke-dasharray:none;opacity:0.5"
       inkscape:connector-curvature="0"
       d="m 8.4666684,281.25728 c -0.433834,0 -0.66121,0.26984 -0.909506,0.50449 l -5.8655973,5.86204 c -0.2837646,0.29562 -0.50094,0.51115 -0.50094,0.90952 0,0.51205 0.3929063,0.90949 0.9095085,0.90949 h 0.9095026 v 5.45703 c 0,0.50023 0.4092756,0.9095 0.9095045,0.9095 h 1.8971737 0.831342 3.6380206 0.86332 1.865196 c 0.500224,0 0.909505,-0.40927 0.909505,-0.9095 v -5.45703 H 14.8332 c 0.516601,0 0.909508,-0.39744 0.909508,-0.90949 0,-0.39837 -0.21718,-0.61394 -0.50094,-0.90952 l -1.31807,-1.31808 v -3.22943 c 0,-0.50023 -0.409281,-0.90953 -0.909505,-0.90953 h -0.909506 c -0.500228,0 -0.909506,0.4093 -0.909506,0.90953 v 0.5027 l -1.8190096,-1.81723 c -0.248291,-0.23478 -0.475671,-0.50449 -0.909503,-0.50449 z"
       id="path1002" />
    <path
       style="fill:none;fill-opacity:1;stroke-width:0.90950507"
       inkscape:connector-curvature="0"
       d="m 8.4666684,281.25728 c -0.433834,0 -0.66121,0.26984 -0.909506,0.50449 l -5.8655973,5.86204 c -0.2837646,0.29562 -0.50094,0.51115 -0.50094,0.90952 0,0.51205 0.3929063,0.90949 0.9095085,0.90949 h 0.9095026 v 5.45703 c 0,0.50023 0.4092756,0.9095 0.9095045,0.9095 h 1.8971737 0.831342 3.6380206 0.86332 1.865196 c 0.500224,0 0.909505,-0.40927 0.909505,-0.9095 v -5.45703 H 14.8332 c 0.516601,0 0.909508,-0.39744 0.909508,-0.90949 0,-0.39837 -0.21718,-0.61394 -0.50094,-0.90952 l -1.31807,-1.31808 v -3.22943 c 0,-0.50023 -0.409281,-0.90953 -0.909505,-0.90953 h -0.909506 c -0.500228,0 -0.909506,0.4093 -0.909506,0.90953 v 0.5027 l -1.8190096,-1.81723 c -0.248291,-0.23478 -0.475671,-0.50449 -0.909503,-0.50449 z"
       id="path1004" />
    <path
       style="fill:#4caf50;fill-opacity:1;stroke-width:0.90950507;filter:url(#filter1051)"
       inkscape:connector-curvature="0"
       d="m 8.4666684,281.25728 c -0.433834,0 -0.66121,0.26984 -0.909506,0.50449 l -5.8655973,5.86204 c -0.2837646,0.29562 -0.50094,0.51115 -0.50094,0.90952 0,0.51205 0.3929063,0.90949 0.9095085,0.90949 h 0.9095026 v 5.45703 c 0,0.50023 0.4092756,0.9095 0.9095045,0.9095 h 1.8971737 0.831342 3.6380206 0.86332 1.865196 c 0.500224,0 0.909505,-0.40927 0.909505,-0.9095 v -5.45703 H 14.8332 c 0.516601,0 0.909508,-0.39744 0.909508,-0.90949 0,-0.39837 -0.21718,-0.61394 -0.50094,-0.90952 l -1.31807,-1.31808 v -3.22943 c 0,-0.50023 -0.409281,-0.90953 -0.909505,-0.90953 h -0.909506 c -0.500228,0 -0.909506,0.4093 -0.909506,0.90953 v 0.5027 l -1.8190096,-1.81723 c -0.248291,-0.23478 -0.475671,-0.50449 -0.909503,-0.50449 z"
       id="path1045" />
    <path
       id="path1006"
       d="m 8.4666659,285.35832 a 2.2225029,2.2225029 0 0 0 -2.2225024,2.2225 c 0,0.75565 0.3778254,1.41923 0.9525014,1.82245 v 0.71756 a 0.31750041,0.31750041 0 0 0 0.3175,0.31749 h 1.905003 a 0.31750041,0.31750041 0 0 0 0.3175,-0.31749 v -0.71756 c 0.5746771,-0.40322 0.9525021,-1.0668 0.9525021,-1.82245 a 2.2225029,2.2225029 0 0 0 -2.2225041,-2.2225 m -0.952501,6.0325 a 0.31750041,0.31750041 0 0 0 0.317501,0.3175 h 1.270001 a 0.31750041,0.31750041 0 0 0 0.317501,-0.3175 v -0.31749 h -1.905003 z"
       inkscape:connector-curvature="0"
       style="stroke-width:0.31750041;stroke:none;stroke-opacity:1;fill:url(#linearGradient1043);fill-opacity:1" />
    <path
       style="fill:none;fill-opacity:1;stroke-width:0.99999998;stroke-miterlimit:4;stroke-dasharray:none;stroke:#2e7d32;stroke-opacity:1;filter:url(#filter1033)"
       d="M 32 4.5 C 30.360312 4.5 29.500942 5.5193839 28.5625 6.40625 L 6.3925781 28.5625 C 5.320082 29.679804 4.5 30.49435 4.5 32 C 4.5 33.935307 5.9849878 35.4375 7.9375 35.4375 L 11.375 35.4375 L 11.375 56.0625 C 11.375 57.953133 12.921871 59.5 14.8125 59.5 L 21.982422 59.5 L 25.125 59.5 L 38.875 59.5 L 42.138672 59.5 L 49.1875 59.5 C 51.07811 59.5 52.625 57.953133 52.625 56.0625 L 52.625 35.4375 L 56.0625 35.4375 C 58.015008 35.4375 59.5 33.935307 59.5 32 C 59.5 30.49435 58.679901 29.679653 57.607422 28.5625 L 52.625 23.580078 L 52.625 11.375 C 52.625 9.4843669 51.07811 7.9375 49.1875 7.9375 L 45.75 7.9375 C 43.859375 7.9375 42.3125 9.4843669 42.3125 11.375 L 42.3125 13.275391 L 35.4375 6.40625 C 34.499077 5.5188925 33.63968 4.5 32 4.5 z M 32 20 A 8.4000109 8.4000109 0 0 1 40.400391 28.400391 C 40.400391 31.256391 38.972787 33.763128 36.800781 35.287109 L 36.800781 38 A 1.2000015 1.2000015 0 0 1 35.599609 39.199219 L 28.400391 39.199219 A 1.2000015 1.2000015 0 0 1 27.199219 38 L 27.199219 35.287109 C 25.027216 33.763128 23.599609 31.256391 23.599609 28.400391 A 8.4000109 8.4000109 0 0 1 32 20 z M 28.400391 41.599609 L 35.599609 41.599609 L 35.599609 42.800781 A 1.2000015 1.2000015 0 0 1 34.400391 44 L 29.599609 44 A 1.2000015 1.2000015 0 0 1 28.400391 42.800781 L 28.400391 41.599609 z "
       id="path1024"
       transform="matrix(0.26458334,0,0,0.26458334,0,280.06665)"
       clip-path="url(#clipPath1029)" />
  </g>
</svg>
