<?xml version="1.0" encoding="UTF-8" standalone="no"?>
<!-- Created with Inkscape (http://www.inkscape.org/) -->

<svg
   xmlns:dc="http://purl.org/dc/elements/1.1/"
   xmlns:cc="http://creativecommons.org/ns#"
   xmlns:rdf="http://www.w3.org/1999/02/22-rdf-syntax-ns#"
   xmlns:svg="http://www.w3.org/2000/svg"
   xmlns="http://www.w3.org/2000/svg"
   xmlns:sodipodi="http://sodipodi.sourceforge.net/DTD/sodipodi-0.dtd"
   xmlns:inkscape="http://www.inkscape.org/namespaces/inkscape"
   width="64"
   height="64"
   viewBox="0 0 16.933333 16.933334"
   version="1.1"
   id="svg8"
   inkscape:version="0.92.3 (2405546, 2018-03-11)"
   sodipodi:docname="com.github.manexim.home.svg">
  <defs
     id="defs2" />
  <sodipodi:namedview
     id="base"
     pagecolor="#ffffff"
     bordercolor="#666666"
     borderopacity="1.0"
     inkscape:pageopacity="0.0"
     inkscape:pageshadow="2"
     inkscape:zoom="3.959798"
     inkscape:cx="-58.30549"
     inkscape:cy="14.018489"
     inkscape:document-units="mm"
     inkscape:current-layer="layer1"
     showgrid="false"
     units="px"
     inkscape:window-width="1920"
     inkscape:window-height="1167"
     inkscape:window-x="1920"
     inkscape:window-y="0"
     inkscape:window-maximized="1" />
  <metadata
     id="metadata5">
    <rdf:RDF>
      <cc:Work
         rdf:about="">
        <dc:format>image/svg+xml</dc:format>
        <dc:type
           rdf:resource="http://purl.org/dc/dcmitype/StillImage" />
        <dc:title></dc:title>
      </cc:Work>
    </rdf:RDF>
  </metadata>
  <g
     inkscape:label="Ebene 1"
     inkscape:groupmode="layer"
     id="layer1"
     transform="translate(0,-280.06665)">
    <path
       id="path2"
       d="m 8.4666684,281.25728 c -0.433833,0 -0.66121,0.26984 -0.909508,0.50449 l -5.8656008,5.86204 c -0.2837659,0.29562 -0.5009387,0.51115 -0.5009387,0.90952 0,0.51205 0.3929066,0.9095 0.9095058,0.9095 h 0.9095061 v 5.45704 c 0,0.50022 0.4092763,0.90949 0.9095052,0.90949 h 1.8971714 0.831346 3.6380226 0.863322 1.865196 c 0.500228,0 0.909508,-0.40927 0.909508,-0.90949 v -5.45704 h 0.909505 c 0.516597,0 0.909503,-0.39745 0.909503,-0.9095 0,-0.39837 -0.217181,-0.61393 -0.500937,-0.90952 l -1.318071,-1.31808 v -3.22943 c 0,-0.50023 -0.40928,-0.90953 -0.909508,-0.90953 h -0.909505 c -0.500229,0 -0.909505,0.4093 -0.909505,0.90953 v 0.5027 l -1.8190126,-1.81723 c -0.248291,-0.23479 -0.475671,-0.50449 -0.909505,-0.50449 z"
       inkscape:connector-curvature="0"
       style="fill:#4caf50;fill-opacity:1;stroke-width:0.9095059" />
    <path
       style="fill:none;fill-opacity:1;stroke:#2e7d32;stroke-width:0.26458332;stroke-miterlimit:4;stroke-dasharray:none;stroke-opacity:1"
       inkscape:connector-curvature="0"
       d="m 8.4666685,281.38957 c -0.4259449,0 -0.6491876,0.26493 -0.892971,0.49532 l -5.7589504,5.75545 c -0.2786064,0.29025 -0.4918305,0.50186 -0.4918305,0.89299 0,0.50273 0.3857626,0.89296 0.8929689,0.89296 h 0.8929691 v 5.35782 c 0,0.49112 0.4018347,0.89295 0.8929683,0.89295 h 1.8626763 0.8162302 3.5718756 0.847624 1.831283 c 0.491132,0 0.892971,-0.40183 0.892971,-0.89295 v -5.35782 h 0.892968 c 0.507204,0 0.892966,-0.39023 0.892966,-0.89296 0,-0.39113 -0.213232,-0.60277 -0.491829,-0.89299 l -1.294105,-1.29411 v -3.17071 c 0,-0.49114 -0.401839,-0.893 -0.892971,-0.893 h -0.892968 c -0.491134,0 -0.892968,0.40186 -0.892968,0.893 v 0.49356 l -1.7859394,-1.78419 c -0.2437765,-0.23052 -0.4670222,-0.49532 -0.8929681,-0.49532 z"
       id="path829" />
    <path
       id="path920"
       d="m 8.4666667,285.35832 a 2.2225028,2.2225028 0 0 0 -2.2225028,2.2225 c 0,0.75565 0.3778254,1.41923 0.9525012,1.82245 v 0.71756 a 0.3175004,0.3175004 0 0 0 0.3175004,0.31749 h 1.9050024 a 0.3175004,0.3175004 0 0 0 0.3175003,-0.31749 v -0.71756 c 0.5746758,-0.40322 0.9525008,-1.0668 0.9525008,-1.82245 a 2.2225028,2.2225028 0 0 0 -2.2225023,-2.2225 m -0.9525012,6.0325 a 0.3175004,0.3175004 0 0 0 0.3175003,0.3175 h 1.2700017 a 0.3175004,0.3175004 0 0 0 0.3175004,-0.3175 v -0.31749 H 7.5141655 Z"
       inkscape:connector-curvature="0"
       style="fill:#ffffff;fill-opacity:1;stroke-width:0.31750038" />
    <path
       style="fill:#ffffff;fill-opacity:1;stroke-width:0.31750038;opacity:0.15"
       inkscape:connector-curvature="0"
       d="m 8.4666667,285.6229 a 2.2225028,2.2225028 0 0 0 -2.2225028,2.2225 c 0,0.75565 0.3778254,1.41923 0.9525012,1.82245 v 0.71756 a 0.3175004,0.3175004 0 0 0 0.3175004,0.31749 h 1.9050024 a 0.3175004,0.3175004 0 0 0 0.3175003,-0.31749 v -0.71756 c 0.5746758,-0.40322 0.9525008,-1.0668 0.9525008,-1.82245 a 2.2225028,2.2225028 0 0 0 -2.2225023,-2.2225 m -0.9525012,6.0325 a 0.3175004,0.3175004 0 0 0 0.3175003,0.3175 h 1.2700017 a 0.3175004,0.3175004 0 0 0 0.3175004,-0.3175 v -0.31749 H 7.5141655 Z"
       id="path931" />
    <path
       id="path933"
       d="m 8.4666667,285.6229 a 2.2225028,2.2225028 0 0 0 -2.2225028,2.2225 c 0,0.75565 0.3778254,1.41923 0.9525012,1.82245 v 0.71756 a 0.3175004,0.3175004 0 0 0 0.3175004,0.31749 h 1.9050024 a 0.3175004,0.3175004 0 0 0 0.3175003,-0.31749 v -0.71756 c 0.5746758,-0.40322 0.9525008,-1.0668 0.9525008,-1.82245 a 2.2225028,2.2225028 0 0 0 -2.2225023,-2.2225 m -0.9525012,6.0325 a 0.3175004,0.3175004 0 0 0 0.3175003,0.3175 h 1.2700017 a 0.3175004,0.3175004 0 0 0 0.3175004,-0.3175 v -0.31749 H 7.5141655 Z"
       inkscape:connector-curvature="0"
       style="fill:#ffffff;fill-opacity:1;stroke-width:0.26458333;opacity:0.07;stroke:#ffffff;stroke-opacity:1;stroke-miterlimit:4;stroke-dasharray:none" />
  </g>
</svg>
